# Created by Open3D 
# object name: femur_ball_mask
# number of vertices: 398
# number of triangles: 780
v -0.0407797 -0.0369705 0.00844671
vn 0.138261 -0.974705 -0.175598
v -0.0402854 -0.0367731 0.00849919
vn 0.559281 -0.784544 -0.267761
v -0.0406529 -0.0368194 0.00806696
vn 0.344447 -0.804784 -0.483404
v -0.0410693 -0.0368225 0.00802285
vn -0.0478999 -0.825199 -0.562807
v -0.0414757 -0.0369913 0.00853952
vn -0.106796 -0.980769 -0.163361
v -0.0416406 -0.0368481 0.00826256
vn -0.335011 -0.805134 -0.489415
v -0.0405256 -0.0369591 0.00900531
vn 0.252085 -0.964301 0.0810929
v -0.0403001 -0.0368523 0.00906557
vn 0.606801 -0.771217 0.192398
v -0.0411235 -0.0370235 0.00906812
vn 0.0245487 -0.984549 0.173381
v -0.0419883 -0.0368766 0.0087339
vn -0.515758 -0.828783 -0.217054
v -0.0419066 -0.036931 0.00912469
vn -0.267912 -0.954192 0.133191
v -0.0422276 -0.0366607 0.00904596
vn -0.879423 -0.475961 -0.00872033
v -0.0405793 -0.036774 0.00942256
vn 0.318178 -0.79458 0.517112
v -0.04154 -0.0368431 0.0095523
vn -0.0235002 -0.848071 0.529361
v -0.0420582 -0.0367351 0.00949494
vn -0.533068 -0.719305 0.445464
v -0.0406005 -0.0364501 0.00770815
vn 0.242427 -0.673066 -0.698722
v -0.0401687 -0.0361608 0.00764194
vn 0.453065 -0.616958 -0.643502
v -0.0405041 -0.0358865 0.00736039
vn 0.181248 -0.300585 -0.936375
v -0.0412659 -0.0360343 0.00736395
vn -0.0499806 -0.412214 -0.909715
v -0.0415151 -0.0364763 0.00772602
vn -0.197736 -0.699478 -0.686754
v -0.0419154 -0.03608 0.00750498
vn -0.284595 -0.457227 -0.842585
v -0.0420841 -0.036231 0.00776661
vn -0.600647 -0.637705 -0.48224
v -0.0421691 -0.0359237 0.00761206
vn -0.822952 -0.225333 -0.521512
v -0.0398927 -0.0363604 0.00824805
vn 0.612535 -0.718914 -0.328578
v -0.0395956 -0.0360481 0.00847052
vn 0.91379 -0.389504 -0.115213
v -0.0397634 -0.0360393 0.00795151
vn 0.756453 -0.482666 -0.441375
v -0.0420728 -0.0366053 0.00833626
vn -0.648471 -0.650476 -0.395431
v -0.0423445 -0.0361098 0.0082617
vn -0.935728 -0.271952 -0.224623
v -0.0398623 -0.0364395 0.00899598
vn 0.732817 -0.665885 0.139915
v -0.0395698 -0.0358914 0.00921763
vn 0.936195 -0.299164 0.184499
v -0.042528 -0.0358773 0.00909714
vn -0.955998 -0.292543 0.0220591
v -0.0399345 -0.0362299 0.00956407
vn 0.625717 -0.63775 0.449169
v -0.0404975 -0.0363781 0.00985642
vn 0.329366 -0.648523 0.686247
v -0.0401012 -0.0360263 0.00990374
vn 0.44108 -0.411961 0.797331
v -0.0411503 -0.0365139 0.00989787
vn 0.0717285 -0.62164 0.780012
v -0.0418962 -0.0364345 0.00990003
vn -0.229472 -0.561797 0.794812
v -0.0422439 -0.03628 0.00971668
vn -0.862863 -0.326073 0.386192
v -0.0406011 -0.0360805 0.0100561
vn 0.204333 -0.332927 0.920547
v -0.041464 -0.0359133 0.0102221
vn -0.0727724 -0.378658 0.922671
v -0.04209 -0.035996 0.0100167
vn -0.542368 -0.15778 0.825193
v -0.0399205 -0.0357678 0.00756068
vn 0.550578 -0.309065 -0.775463
v -0.0396487 -0.0355256 0.00778853
vn 0.879934 -0.165686 -0.445268
v -0.0399917 -0.0352152 0.00741157
vn 0.414041 -0.025294 -0.909907
v -0.0407379 -0.0351761 0.00720593
vn 0.116574 0.0324466 -0.992652
v -0.0412899 -0.0353671 0.0072184
vn -0.117859 -0.0555743 -0.991474
v -0.0419653 -0.035565 0.00739376
vn -0.373376 -0.0977812 -0.922512
v -0.0423038 -0.0352615 0.00769056
vn -0.907116 -0.034488 -0.419465
v -0.0394449 -0.035373 0.00841206
vn 0.989492 -0.0682508 -0.127469
v -0.0425337 -0.035183 0.00851619
vn -0.976093 0.0629574 -0.208035
v -0.0394426 -0.0352214 0.00901594
vn 0.98792 0.0750301 0.135591
v -0.0427017 -0.0354111 0.00900654
vn -0.904194 -0.272444 -0.328949
v -0.0426806 -0.0354685 0.0091852
vn -0.877614 -0.293521 0.378997
v -0.0427214 -0.0353478 0.00909749
vn -0.991353 0.0510349 0.120895
v -0.0397563 -0.0357647 0.00977707
vn 0.770538 -0.301118 0.561782
v -0.0396546 -0.0352898 0.00969754
vn 0.897169 0.104864 0.42906
v -0.0426698 -0.0352791 0.00921284
vn -0.824408 0.284942 0.489039
v -0.042392 -0.0354847 0.00968515
vn -0.839046 0.00423634 0.544044
v -0.0399684 -0.0354469 0.010001
vn 0.407646 -0.0805494 0.90958
v -0.0408105 -0.0353724 0.0102967
vn 0.287411 -0.0681607 0.955379
v -0.0412407 -0.0354401 0.0104868
vn 0.292912 -0.478939 0.827538
v -0.0411827 -0.0352744 0.0104779
vn 0.365251 0.354199 0.860892
v -0.04142 -0.0354215 0.0104738
vn -0.49664 -0.258415 0.828595
v -0.0418589 -0.0352354 0.010189
vn -0.507803 0.0938866 0.856342
v -0.0413022 -0.0353544 0.0105214
vn -0.0394128 0.035942 0.998576
v -0.0396689 -0.0348409 0.00769727
vn 0.890938 0.0958109 -0.443902
v -0.0399479 -0.0345734 0.00749431
vn 0.3804 0.350226 -0.855942
v -0.0405604 -0.0346183 0.00734458
vn 0.11932 0.396252 -0.910356
v -0.0413614 -0.0346682 0.00731863
vn -0.10893 0.329309 -0.937918
v -0.0420409 -0.0348003 0.00745956
vn -0.430623 0.139099 -0.891749
v -0.0422645 -0.0346332 0.00780602
vn -0.884431 0.3362 -0.323653
v -0.0395488 -0.0347188 0.00833806
vn 0.937008 0.340593 -0.0775378
v -0.0423217 -0.0345029 0.00842198
vn -0.871031 0.489235 -0.0442068
v -0.0396124 -0.0346457 0.00911764
vn 0.910182 0.371615 0.182948
v -0.0426878 -0.0352382 0.00902928
vn -0.880331 0.458995 -0.119754
v -0.0424166 -0.0347865 0.00924774
vn -0.886291 0.427506 0.178121
v -0.0398649 -0.0345136 0.00951586
vn 0.686833 0.561284 0.461758
v -0.0399027 -0.0349621 0.00992665
vn 0.6307 0.28373 0.722299
v -0.0402311 -0.0345056 0.00989893
vn 0.441921 0.583024 0.681754
v -0.042166 -0.0347308 0.00987955
vn -0.798496 0.194176 0.569824
v -0.0403649 -0.0347634 0.0100771
vn 0.245778 0.265431 0.932277
v -0.0413708 -0.0352497 0.0104748
vn -0.334565 0.468053 0.81792
v -0.0411976 -0.0347632 0.0101996
vn -0.023713 0.456468 0.889424
v -0.0419331 -0.0345598 0.00997468
vn -0.263679 0.450677 0.852856
v -0.0398043 -0.0344686 0.00772849
vn 0.707323 0.643902 -0.291694
v -0.0403155 -0.0341892 0.00772119
vn 0.284881 0.757615 -0.58725
v -0.0412439 -0.03421 0.00762795
vn -0.113828 0.710792 -0.694131
v -0.0419755 -0.034482 0.00757367
vn -0.360822 0.668519 -0.6503
v -0.0398752 -0.0342144 0.00844527
vn 0.714213 0.68991 -0.118004
v -0.0403395 -0.0338691 0.00828925
vn 0.472402 0.847769 -0.241092
v -0.0408052 -0.0338527 0.00803794
vn 0.0679194 0.861753 -0.502762
v -0.0414097 -0.033884 0.00810284
vn -0.313674 0.825572 -0.469083
v -0.0416491 -0.0338611 0.00859734
vn -0.507799 0.85879 -0.0679646
v -0.0419958 -0.0342143 0.00811069
vn -0.565485 0.772472 -0.288988
v -0.0397751 -0.0343341 0.00910661
vn 0.73355 0.656349 0.176382
v -0.0402055 -0.0339389 0.00895389
vn 0.546479 0.81713 0.183463
v -0.0420299 -0.0341858 0.00904227
vn -0.687531 0.713984 0.132396
v -0.041568 -0.0338703 0.00919589
vn -0.44524 0.847161 0.289965
v -0.040793 -0.0342632 0.00988973
vn 0.0672062 0.621054 0.780881
v -0.0404922 -0.0340116 0.0095154
vn 0.391287 0.763218 0.514191
v -0.0415653 -0.034185 0.00973175
vn -0.266976 0.732259 0.626515
v -0.0411051 -0.0338643 0.00945669
vn -0.0521451 0.848618 0.52643
v -0.0420812 -0.0344512 0.00974213
vn -0.660311 0.680399 0.317878
v -0.0406585 -0.0337192 0.00856698
vn 0.175986 0.982271 -0.0645903
v -0.0412181 -0.033744 0.00834937
vn -0.124956 0.97553 -0.180908
v -0.0406911 -0.0337511 0.00914601
vn 0.201989 0.947594 0.247521
v -0.0412329 -0.0337177 0.00893951
vn -0.133875 0.986622 0.0930316
v -0.00291749 -0.00693652 0.00570495
vn 0.0495353 -0.976466 -0.209905
v -0.00229452 -0.00678611 0.00565118
vn 0.345615 -0.880911 -0.323335
v -0.00272408 -0.00673943 0.00528101
vn 0.209717 -0.816719 -0.537577
v -0.00331266 -0.00675629 0.00524204
vn -0.0833513 -0.842974 -0.531458
v -0.00356385 -0.00688073 0.00568266
vn -0.291436 -0.95323 -0.0801084
v -0.00376305 -0.00675282 0.00551194
vn -0.539177 -0.803998 -0.250748
v -0.00220353 -0.00687113 0.00624884
vn 0.358493 -0.933252 -0.0228563
v -0.00183179 -0.00653591 0.00642268
vn 0.890614 -0.442479 0.104966
v -0.00194836 -0.00666209 0.00591871
vn 0.726113 -0.65046 -0.222848
v -0.00281949 -0.00702865 0.00630468
vn 0.0582323 -0.997793 0.0319204
v -0.00333642 -0.00693285 0.00638641
vn -0.279214 -0.950884 0.133639
v -0.00392738 -0.00660763 0.00627946
vn -0.636529 -0.72783 0.255135
v -0.00210234 -0.00676036 0.00675487
vn 0.503862 -0.813674 0.289926
v -0.00267975 -0.0068857 0.00685992
vn 0.068441 -0.925097 0.373513
v -0.00234215 -0.00663819 0.00713293
vn 0.261561 -0.603516 0.75323
v -0.0031881 -0.00677505 0.00696451
vn -0.246191 -0.800683 0.546166
v -0.00361272 -0.00667411 0.00675116
vn -0.580369 -0.691636 0.429897
v -0.00285117 -0.00652596 0.00724369
vn -0.0715108 -0.441544 0.894385
v -0.0021581 -0.00611658 0.00479537
vn 0.29804 -0.617804 -0.727661
v -0.00189762 -0.00602334 0.00494307
vn 0.790012 -0.426633 -0.440301
v -0.00207592 -0.00574439 0.00466007
vn 0.394291 -0.174898 -0.902189
v -0.0027501 -0.00589175 0.00453023
vn 0.108772 -0.335084 -0.935888
v -0.00288817 -0.00639328 0.0048458
vn 0.0914917 -0.673812 -0.733217
v -0.00352696 -0.00596117 0.00456031
vn -0.120152 -0.393936 -0.911251
v -0.0037587 -0.00640723 0.0049446
vn -0.302146 -0.739048 -0.602092
v -0.00413283 -0.00600669 0.00470603
vn -0.324195 -0.379805 -0.866398
v -0.00428673 -0.00612191 0.00494709
vn -0.655134 -0.685941 -0.316677
v -0.00438113 -0.00582039 0.00483523
vn -0.836121 -0.0899113 -0.541127
v -0.00211477 -0.00645424 0.00528611
vn 0.510292 -0.703659 -0.494435
v -0.00171499 -0.00611525 0.00562111
vn 0.918444 -0.337361 -0.206514
v -0.00421342 -0.00639543 0.00567878
vn -0.721339 -0.681921 -0.121054
v -0.00451252 -0.00587936 0.00535098
vn -0.953067 -0.280669 -0.113526
v -0.00158735 -0.00586654 0.0062149
vn 0.982936 -0.172538 0.063772
v -0.00429107 -0.00628145 0.00627976
vn -0.773453 -0.56685 0.28364
v -0.00446165 -0.00594863 0.00613955
vn -0.947208 -0.273506 0.167305
v -0.00197102 -0.00641717 0.00703069
vn 0.740422 -0.38977 0.54759
v -0.00179441 -0.00590046 0.00697767
vn 0.889673 -0.127304 0.438492
v -0.00348627 -0.00641351 0.00712638
vn -0.412316 -0.476896 0.776251
v -0.00384333 -0.00612621 0.00699177
vn -0.701257 -0.366447 0.611519
v -0.00425063 -0.00586764 0.00663206
vn -0.789225 -0.251686 0.560159
v -0.00223874 -0.00607531 0.00732761
vn 0.309881 -0.182182 0.933158
v -0.00295059 -0.00580865 0.00746853
vn -0.0798349 -0.157061 0.984357
v -0.00352691 -0.00593285 0.00728911
vn -0.398248 -0.198144 0.895621
v -0.00177001 -0.00545805 0.00490574
vn 0.89284 -0.0911003 -0.441064
v -0.002087 -0.00497588 0.00458696
vn 0.398996 0.0831309 -0.913177
v -0.00277372 -0.00519833 0.00442144
vn 0.10194 0.0474779 -0.993657
v -0.00336397 -0.00539539 0.00441433
vn -0.117295 -0.0358762 -0.992449
v -0.00410332 -0.00534847 0.00461782
vn -0.420425 0.0268962 -0.906929
v -0.00447392 -0.00514343 0.00505558
vn -0.936697 0.12063 -0.328706
v -0.00158622 -0.00527482 0.00552845
vn 0.988779 0.0210505 -0.147893
v -0.00459553 -0.00540176 0.00573059
vn -0.998943 0.0398755 0.0228858
v -0.0015847 -0.00524652 0.00631013
vn 0.984165 0.119376 0.131032
v -0.00447069 -0.00528069 0.00630215
vn -0.952495 0.0735489 0.295539
v -0.00178051 -0.00505656 0.00697852
vn 0.912107 0.136076 0.38671
v -0.00429152 -0.00515812 0.00663167
vn -0.795318 0.157726 0.585313
v -0.00394171 -0.00534006 0.00705474
vn -0.693808 0.0461245 0.718681
v -0.00207678 -0.00531169 0.00731817
vn 0.447751 0.0445362 0.893049
v -0.00278409 -0.00526395 0.00747836
vn 0.0479912 0.105258 0.993286
v -0.00348759 -0.00519417 0.00735911
vn -0.341982 0.0747636 0.936728
v -0.00183626 -0.00468765 0.00487946
vn 0.882422 0.238224 -0.405686
v -0.0021516 -0.00445949 0.00469876
vn 0.317455 0.557867 -0.766816
v -0.00279298 -0.00452216 0.00456842
vn 0.0252024 0.421252 -0.906593
v -0.0036109 -0.00469482 0.004576
vn -0.188453 0.309688 -0.931976
v -0.00420863 -0.00478252 0.00479092
vn -0.598759 0.305616 -0.740328
v -0.00396962 -0.00443514 0.00488363
vn -0.41268 0.73454 -0.538651
v -0.00174142 -0.00454063 0.0055056
vn 0.915324 0.396748 -0.0690854
v -0.00433594 -0.00456461 0.00518156
vn -0.800516 0.532138 -0.275687
v -0.00443161 -0.0046538 0.00569581
vn -0.936253 0.349979 0.030738
v -0.001785 -0.004505 0.00627474
vn 0.88209 0.455873 0.11873
v -0.00434292 -0.00473262 0.00628334
vn -0.861686 0.37323 0.343797
v -0.00420889 -0.0043899 0.00601338
vn -0.617129 0.756848 0.215252
v -0.00400731 -0.00454579 0.00662842
vn -0.679661 0.558328 0.475743
v -0.00192978 -0.00448613 0.00690568
vn 0.796028 0.526354 0.298816
v -0.00369413 -0.00457663 0.00711157
vn -0.6311 0.333958 0.700132
v -0.00203189 -0.00466219 0.00718123
vn 0.515537 0.280848 0.809534
v -0.00257344 -0.00458623 0.00730475
vn 0.109275 0.3713 0.92206
v -0.00335299 -0.00450976 0.00723323
vn -0.147963 0.427401 0.891872
v -0.00206488 -0.00430596 0.00502963
vn 0.422876 0.873389 -0.241594
v -0.00274977 -0.00420803 0.00488684
vn 0.0486894 0.90573 -0.42105
v -0.00350554 -0.00429025 0.00486334
vn -0.191442 0.829689 -0.524372
v -0.00205718 -0.00420779 0.00575721
vn 0.417119 0.908796 -0.0100912
v -0.00279716 -0.00403605 0.00557567
vn 0.0837566 0.993519 -0.0768478
v -0.00340637 -0.00407425 0.00542701
vn -0.162702 0.972255 -0.168075
v -0.00408973 -0.00428953 0.00551192
vn -0.447849 0.884843 -0.128389
v -0.00213628 -0.00423039 0.00652165
vn 0.347016 0.920894 0.177579
v -0.00283234 -0.00405346 0.00629576
vn 0.0390623 0.990418 0.132465
v -0.0036536 -0.00413785 0.0061011
vn -0.274636 0.952603 0.130854
v -0.00220627 -0.00438037 0.00706904
vn 0.263458 0.80597 0.530096
v -0.00286051 -0.00423676 0.0069958
vn 0.0372857 0.895231 0.444039
v -0.00352096 -0.00427526 0.00688452
vn -0.292286 0.897232 0.330973
v -0.0281233 0.0295182 -0.00144759
vn 0.206827 -0.87481 -0.438099
v -0.0277939 0.0296576 -0.0013886
vn 0.679739 -0.652889 -0.3342
v -0.027967 0.0298732 -0.00166731
vn 0.333778 -0.254483 -0.907651
v -0.0286486 0.0297325 -0.00172434
vn 0.01341 -0.394723 -0.918702
v -0.0288907 0.0294255 -0.00142819
vn -0.0353732 -0.90496 -0.424023
v -0.0292717 0.0296621 -0.00162672
vn -0.240663 -0.486938 -0.839626
v -0.0295929 0.029509 -0.00130674
vn -0.348588 -0.815534 -0.461942
v -0.02974 0.0299003 -0.00149239
vn -0.563185 -0.245305 -0.78908
v -0.0280215 0.0294037 -0.000764877
vn 0.36193 -0.931046 -0.0464843
v -0.0275679 0.0297098 -0.000657053
vn 0.697829 -0.70665 -0.116964
v -0.028684 0.0292477 -0.000758878
vn 0.0928026 -0.987793 -0.125109
v -0.0294606 0.0292713 -0.000698117
vn -0.205005 -0.966859 -0.152172
v -0.0301044 0.0296978 -0.00105888
vn -0.666442 -0.475003 -0.574653
v -0.0301208 0.0295085 -0.000656232
vn -0.527545 -0.838751 -0.134879
v -0.030334 0.0297975 -0.000743325
vn -0.917769 -0.304211 -0.255257
v -0.0279848 0.0294648 3.4533e-05
vn 0.387904 -0.907175 0.162983
v -0.0276792 0.0296263 7.24651e-06
vn 0.652591 -0.739459 0.165305
v -0.0286843 0.0292698 7.5279e-05
vn 0.157806 -0.97504 0.156184
v -0.029274 0.0292229 -6.8692e-05
vn -0.099555 -0.989271 0.106924
v -0.029974 0.0294393 0.000113986
vn -0.409876 -0.901549 0.138605
v -0.0303789 0.0298171 -9.73438e-05
vn -0.931428 -0.356809 0.0716192
v -0.0278451 0.029709 0.000433708
vn 0.597743 -0.664373 0.448677
v -0.0285504 0.0294787 0.000674602
vn 0.209566 -0.869522 0.447228
v -0.0283078 0.0297179 0.000857812
vn 0.348671 -0.515592 0.782683
v -0.0293141 0.02944 0.000657369
vn -0.0869513 -0.887884 0.451775
v -0.0298699 0.0296148 0.000721078
vn -0.381937 -0.756733 0.530546
v -0.0302311 0.029742 0.00045476
vn -0.799019 -0.501853 0.331229
v -0.0288356 0.0297772 0.000995674
vn 0.0765413 -0.419298 0.904616
v -0.0295892 0.0298171 0.000978191
vn -0.211064 -0.391925 0.895459
v -0.0275446 0.0301781 -0.00139283
vn 0.742229 -0.225618 -0.631025
v -0.0279964 0.030615 -0.00175111
vn 0.415213 0.0230268 -0.909433
v -0.0286343 0.030433 -0.00186793
vn -0.00356066 -0.0640543 -0.99794
v -0.029335 0.0301976 -0.00174557
vn -0.269403 -0.0931059 -0.958516
v -0.0298399 0.0306717 -0.00151095
vn -0.592413 0.0119573 -0.805546
v -0.0272047 0.0301735 -0.000812921
vn 0.815463 -0.510128 -0.273476
v -0.0270702 0.0303979 -0.000609374
vn 0.97382 -0.218954 -0.0611114
v -0.0271991 0.0306434 -0.00106387
vn 0.829231 -0.0194098 -0.558569
v -0.0302177 0.0302464 -0.00111938
vn -0.792425 -0.049619 -0.607948
v -0.0304557 0.0304641 -0.000670164
vn -0.960194 -0.00359228 -0.27931
v -0.0272852 0.030044 -0.000136464
vn 0.818369 -0.539733 0.197383
v -0.0270848 0.0306047 -4.78334e-05
vn 0.955244 -0.115976 0.272135
v -0.0305132 0.0306046 -0.000154184
vn -0.996374 0.0152872 0.0836909
v -0.0273707 0.0303256 0.000413525
vn 0.807576 -0.283097 0.517375
v -0.0278318 0.030067 0.000780484
vn 0.572026 -0.371739 0.731161
v -0.0276275 0.0306559 0.000778673
vn 0.649619 -0.0362141 0.759397
v -0.0300966 0.0299965 0.000819794
vn -0.602752 -0.250105 0.757719
v -0.0303238 0.0303379 0.000578853
vn -0.925346 -0.048766 0.375974
v -0.0281622 0.0303428 0.0010036
vn 0.27476 -0.113582 0.95478
v -0.0288269 0.0305338 0.00115775
vn 0.081499 0.00180584 0.996672
v -0.0293039 0.0302968 0.00114718
vn -0.1412 -0.0573012 0.988321
v -0.0299581 0.0305186 0.000947658
vn -0.423785 0.0785049 0.902354
v -0.0276239 0.0311572 -0.00141728
vn 0.663038 0.244327 -0.707591
v -0.028093 0.031338 -0.00167851
vn 0.283084 0.258513 -0.923599
v -0.0285525 0.0310309 -0.00183873
vn 0.0243301 0.175735 -0.984137
v -0.0293261 0.0310724 -0.00171742
vn -0.242084 0.143766 -0.959545
v -0.0297421 0.0311566 -0.0015294
vn -0.576404 0.244745 -0.779653
v -0.0270669 0.0309396 -0.000651154
vn 0.981908 0.123547 -0.143502
v -0.0272579 0.0312038 -0.00100269
vn 0.79326 0.375008 -0.479696
v -0.0301099 0.0311534 -0.00111253
vn -0.790028 0.267565 -0.551603
v -0.0303751 0.0311416 -0.000547586
vn -0.931151 0.340728 -0.129859
v -0.0270877 0.0312089 -8.57588e-05
vn 0.976576 0.158356 0.145683
v -0.030371 0.0310404 0.000174263
vn -0.933834 0.29145 0.207393
v -0.0273028 0.0311607 0.000312288
vn 0.775402 0.28517 0.563409
v -0.0277095 0.0312274 0.000751515
vn 0.599627 0.39361 0.696791
v -0.0301979 0.03084 0.000693062
vn -0.764238 0.234861 0.600651
v -0.0302342 0.0311921 0.000378019
vn -0.695008 0.563324 0.446799
v -0.0298846 0.0311786 0.000756599
vn -0.494672 0.508424 0.704844
v -0.027917 0.0310449 0.000927344
vn 0.319974 0.143857 0.936441
v -0.0285131 0.0311078 0.00104086
vn 0.106413 0.245961 0.963421
v -0.0293289 0.0310943 0.0010218
vn -0.185198 0.300523 0.935622
v -0.0279464 0.0315266 -0.0015444
vn 0.557282 0.466562 -0.686845
v -0.0283073 0.031861 -0.00149373
vn 0.239668 0.602205 -0.761517
v -0.0287972 0.0317664 -0.00160606
vn -0.0585815 0.403187 -0.913241
v -0.0294682 0.0316029 -0.00149342
vn -0.468724 0.438384 -0.766888
v -0.0291174 0.0319919 -0.00139686
vn -0.283127 0.743966 -0.605271
v -0.0272293 0.0314935 -0.000484863
vn 0.827921 0.54019 -0.150808
v -0.027621 0.0318313 -0.000836269
vn 0.660296 0.668814 -0.341608
v -0.0279748 0.0319214 -0.00118636
vn 0.51696 0.720362 -0.462418
v -0.0296559 0.0318572 -0.00108943
vn -0.615635 0.642209 -0.456686
v -0.0301388 0.031531 -0.000740249
vn -0.792424 0.576216 -0.2001
v -0.0297795 0.0319362 -0.000509838
vn -0.625452 0.779767 -0.0277945
v -0.0271805 0.0314324 -3.91215e-05
vn 0.738261 0.595529 0.316727
v -0.0276221 0.0318991 -0.000138142
vn 0.634275 0.74809 0.195084
v -0.0301015 0.0315024 7.88529e-06
vn -0.730294 0.634717 0.252595
v -0.0296746 0.0319174 6.60346e-05
vn -0.558678 0.747776 0.358761
v -0.0281721 0.0315008 0.000806756
vn 0.212614 0.556092 0.803466
v -0.0278734 0.0318124 0.000382079
vn 0.513081 0.644643 0.56673
v -0.0289314 0.0315896 0.000821402
vn -0.0572041 0.590951 0.804677
v -0.0284862 0.0319776 0.000433743
vn 0.0738961 0.783381 0.617133
v -0.0295419 0.03156 0.00066856
vn -0.435031 0.63221 0.641138
v -0.0292284 0.0319589 0.000361107
vn -0.201211 0.825693 0.527016
v -0.0286186 0.0321064 -0.00126842
vn 0.0933747 0.915847 -0.390519
v -0.0280893 0.0321707 -0.000600533
vn 0.300875 0.948436 -0.0997176
v -0.0288476 0.0322727 -0.000612997
vn -0.0272754 0.997595 -0.0637149
v -0.0292904 0.0321443 -0.000913204
vn -0.309438 0.927045 -0.211746
v -0.0280595 0.0321196 5.38591e-05
vn 0.287939 0.91482 0.283189
v -0.028698 0.0322109 -3.23511e-05
vn -0.00730006 0.969539 0.24483
v -0.0293837 0.0321355 -0.000203472
vn -0.296435 0.943787 0.146259
v 0.00621875 0.0534499 0.027986
vn 0.097773 -0.995157 -0.010161
v 0.00647947 0.0535354 0.0281078
vn 0.455299 -0.859105 0.233756
v 0.00642451 0.0535241 0.0277901
vn 0.34062 -0.906498 -0.249478
v 0.00583112 0.0534895 0.0276875
vn -0.0223924 -0.946852 -0.32089
v 0.00567942 0.0534453 0.0280283
vn -0.0709225 -0.996686 0.0398435
v 0.00541814 0.0535153 0.0279076
vn -0.429874 -0.883448 -0.186354
v 0.00606115 0.0535009 0.0283172
vn 0.0755868 -0.921374 0.381256
v 0.00546377 0.0535189 0.0282373
vn -0.313751 -0.911206 0.266955
v 0.00618303 0.0539639 0.0266181
vn 0.0925674 -0.861081 -0.499972
v 0.00675934 0.0541689 0.0265698
vn 0.360983 -0.693169 -0.623865
v 0.00638668 0.0543936 0.0262954
vn 0.15344 -0.316918 -0.935959
v 0.00571848 0.0541827 0.0263528
vn -0.120479 -0.493462 -0.861383
v 0.00539725 0.0540143 0.0266477
vn -0.314439 -0.799006 -0.51256
v 0.0052907 0.0543782 0.0264855
vn -0.602627 -0.122412 -0.788578
v 0.00694775 0.0539896 0.0270832
vn 0.439113 -0.845747 -0.303137
v 0.00727285 0.0542395 0.0273094
vn 0.858293 -0.481301 -0.177996
v 0.00712328 0.0542542 0.0268454
vn 0.76181 -0.480347 -0.43464
v 0.00636257 0.0536721 0.0273427
vn 0.20875 -0.911031 -0.355592
v 0.00548137 0.0536932 0.0273075
vn -0.246667 -0.905184 -0.346117
v 0.00490444 0.0542094 0.0269119
vn -0.709409 -0.358301 -0.606926
v 0.00484562 0.054017 0.0272784
vn -0.585388 -0.773981 -0.241402
v 0.00467823 0.0543075 0.027243
vn -0.935353 -0.150074 -0.320302
v 0.00693619 0.0538356 0.0278758
vn 0.591138 -0.806527 -0.0083213
v 0.00734619 0.0542858 0.0280176
vn 0.903538 -0.426421 0.0422426
v 0.00494819 0.053816 0.0281352
vn -0.60705 -0.794277 0.0247847
v 0.00457603 0.0542722 0.0278159
vn -0.934773 -0.344928 -0.0849985
v 0.00711556 0.0540695 0.02862
vn 0.632689 -0.747019 0.204128
v 0.00725575 0.0543936 0.0286914
vn 0.911704 -0.204203 0.356508
v 0.00649905 0.0538047 0.0287295
vn 0.284358 -0.855822 0.432099
v 0.005508 0.0536877 0.0286978
vn -0.153655 -0.897511 0.413357
v 0.00496293 0.0540014 0.0289366
vn -0.522078 -0.764976 0.377155
v 0.00461754 0.0542551 0.0285105
vn -0.908175 -0.36925 0.19716
v 0.00698434 0.054147 0.0289047
vn 0.534191 -0.549034 0.642807
v 0.00642208 0.0541749 0.0292755
vn 0.37339 -0.632693 0.678439
v 0.00563776 0.0540147 0.029342
vn -0.00139004 -0.829643 0.558292
v 0.00596934 0.0542689 0.0295535
vn 0.200596 -0.502271 0.841121
v 0.00523191 0.0541906 0.0293888
vn -0.510542 -0.384169 0.76926
v 0.00480827 0.0543712 0.0290392
vn -0.802894 -0.156968 0.575084
v 0.00561507 0.0543556 0.0295923
vn -0.223721 -0.17977 0.957931
v 0.00698554 0.0545499 0.0264567
vn 0.549848 -0.298746 -0.780012
v 0.00724791 0.0548735 0.0266849
vn 0.910491 -0.0934262 -0.402836
v 0.00690759 0.0550533 0.026342
vn 0.371337 0.0865912 -0.924451
v 0.00619508 0.0550445 0.0261766
vn 0.0279962 0.0502988 -0.998342
v 0.00567445 0.0546973 0.0262546
vn -0.306515 -0.034107 -0.951254
v 0.00516853 0.0551938 0.0266344
vn -0.672538 0.189478 -0.715395
v 0.00746069 0.0547824 0.0274292
vn 0.982812 -0.102209 -0.153731
v 0.00481533 0.0547457 0.0269462
vn -0.812294 0.0427448 -0.58168
v 0.00459829 0.0550275 0.0275072
vn -0.969717 0.11084 -0.217632
v 0.00748654 0.054947 0.0280201
vn 0.996225 -0.0391059 0.0775054
v 0.00449124 0.0548112 0.0281288
vn -0.998014 0.0569726 0.0268891
v 0.00732704 0.0551257 0.0286958
vn 0.901002 0.0162014 0.433513
v 0.00460952 0.054923 0.0286653
vn -0.941447 0.148232 0.302827
v 0.00697237 0.0546965 0.029149
vn 0.707259 -0.150784 0.690687
v 0.00644969 0.0545894 0.0295165
vn 0.478927 -0.314485 0.81959
v 0.00664687 0.0551717 0.0295113
vn 0.579666 0.00127044 0.814853
v 0.00475467 0.0549141 0.0289733
vn -0.735333 0.203093 0.646559
v 0.00522015 0.0547536 0.029413
vn -0.574572 0.160529 0.802557
v 0.00617106 0.0547811 0.0296629
vn 0.135426 -0.079139 0.987622
v 0.00577477 0.0550735 0.0296411
vn -0.277973 0.158285 0.947458
v 0.00715177 0.0553196 0.026567
vn 0.748353 0.283747 -0.599546
v 0.00669772 0.0557801 0.0265474
vn 0.337115 0.564486 -0.753464
v 0.0062767 0.0556084 0.0263201
vn 0.0948028 0.376 -0.921757
v 0.0056436 0.0554664 0.0263543
vn -0.346251 0.225415 -0.910658
v 0.00540657 0.0557348 0.026639
vn -0.631081 0.529086 -0.567278
v 0.00735583 0.055521 0.0272374
vn 0.959123 0.208429 -0.191419
v 0.00709496 0.0558102 0.0268745
vn 0.682596 0.504557 -0.528663
v 0.00478478 0.0553093 0.0271737
vn -0.827369 0.295489 -0.477646
v 0.00500897 0.0557217 0.0272112
vn -0.683216 0.601815 -0.413563
v 0.00744004 0.0555215 0.0281504
vn 0.979031 0.196845 0.052436
v 0.00475021 0.0556485 0.0276334
vn -0.86411 0.455017 -0.215114
v 0.00468735 0.0555683 0.0280831
vn -0.922879 0.368382 0.112201
v 0.00726855 0.0558364 0.0286085
vn 0.917036 0.260698 0.301798
v 0.00487168 0.0553472 0.0288047
vn -0.715059 0.430559 0.550736
v 0.00489972 0.0557844 0.0283342
vn -0.658586 0.676607 0.329344
v 0.00520486 0.0557142 0.0288413
vn -0.593441 0.599286 0.537293
v 0.00698365 0.055646 0.0290823
vn 0.703074 0.259326 0.662146
v 0.00654334 0.0557101 0.0294771
vn 0.485474 0.434645 0.75855
v 0.00547108 0.0553803 0.0293578
vn -0.56706 0.38965 0.725683
v 0.0055125 0.0557116 0.0291371
vn -0.469172 0.64739 0.600636
v 0.0058915 0.0556427 0.0294547
vn -0.377013 0.551779 0.743909
v 0.00630548 0.0555102 0.029612
vn 0.0459972 0.230533 0.971977
v 0.00615067 0.0559833 0.0265812
vn -0.0723791 0.748647 -0.659006
v 0.00570078 0.0558221 0.0265115
vn -0.254859 0.665502 -0.701536
v 0.00712783 0.0561542 0.027322
vn 0.791682 0.514232 -0.329856
v 0.00674679 0.0563025 0.027105
vn 0.370069 0.73246 -0.571446
v 0.00626503 0.0563397 0.0270131
vn -0.0610895 0.81181 -0.580717
v 0.00596773 0.0564853 0.0274811
vn -0.380306 0.892681 -0.241844
v 0.00557161 0.0561217 0.0271134
vn -0.47028 0.802721 -0.366708
v 0.0071935 0.0562465 0.0279079
vn 0.896621 0.441975 -0.0269957
v 0.00696284 0.0564545 0.0275889
vn 0.500933 0.829971 -0.245385
v 0.00550882 0.0562826 0.0278753
vn -0.55326 0.833008 -0.000981921
v 0.00588064 0.0564844 0.0282056
vn -0.465062 0.874254 0.139271
v 0.0049503 0.0559057 0.0278913
vn -0.600179 0.799 -0.0372023
v 0.007079 0.0563341 0.0283978
vn 0.722262 0.652338 0.229767
v 0.00713059 0.056027 0.0287499
vn 0.647496 0.490456 0.583269
v 0.00676908 0.0563859 0.028701
vn 0.42373 0.735721 0.528364
v 0.00550857 0.0560511 0.0286641
vn -0.523172 0.752242 0.400527
v 0.00610172 0.0564208 0.0288002
vn -0.419083 0.768586 0.483368
v 0.00621566 0.0559647 0.0293486
vn -0.300788 0.642024 0.705218
v 0.00643296 0.0562871 0.029033
vn 0.336743 0.681038 0.650224
v 0.00645205 0.0565518 0.0273985
vn 0.0990271 0.951315 -0.29188
v 0.00682623 0.0565592 0.0280614
vn 0.31713 0.946342 0.0621653
v 0.00624203 0.0566268 0.027861
vn -0.0948076 0.995395 -0.0141483
v 0.00632501 0.0565577 0.0285808
vn 0.0133375 0.96844 0.248889
f 3//3 2//2 1//1
f 5//5 4//4 1//1
f 1//1 4//4 3//3
f 5//5 6//6 4//4
f 1//1 2//2 7//7
f 7//7 2//2 8//8
f 1//1 9//9 5//5
f 1//1 7//7 9//9
f 6//6 5//5 10//10
f 5//5 11//11 10//10
f 5//5 9//9 11//11
f 11//11 12//12 10//10
f 8//8 13//13 7//7
f 7//7 13//13 9//9
f 9//9 13//13 14//14
f 9//9 14//14 11//11
f 11//11 14//14 15//15
f 11//11 15//15 12//12
f 18//18 17//17 16//16
f 20//20 19//19 16//16
f 16//16 19//19 18//18
f 22//22 21//21 20//20
f 20//20 21//21 19//19
f 22//22 23//23 21//21
f 26//26 25//25 24//24
f 26//26 24//24 17//17
f 17//17 24//24 16//16
f 24//24 2//2 16//16
f 2//2 3//3 16//16
f 16//16 3//3 4//4
f 16//16 4//4 20//20
f 20//20 4//4 6//6
f 27//27 20//20 6//6
f 22//22 20//20 27//27
f 23//23 22//22 28//28
f 28//28 22//22 27//27
f 24//24 25//25 29//29
f 29//29 25//25 30//30
f 29//29 8//8 2//2
f 29//29 2//2 24//24
f 10//10 27//27 6//6
f 10//10 12//12 27//27
f 12//12 28//28 27//27
f 12//12 31//31 28//28
f 30//30 32//32 29//29
f 32//32 34//34 33//33
f 32//32 33//33 13//13
f 29//29 32//32 13//13
f 8//8 29//29 13//13
f 35//35 14//14 13//13
f 35//35 13//13 33//33
f 36//36 15//15 14//14
f 36//36 14//14 35//35
f 36//36 37//37 15//15
f 37//37 12//12 15//15
f 37//37 31//31 12//12
f 34//34 38//38 33//33
f 33//33 38//38 35//35
f 35//35 38//38 39//39
f 35//35 39//39 36//36
f 36//36 39//39 40//40
f 36//36 40//40 37//37
f 43//43 42//42 41//41
f 17//17 18//18 41//41
f 18//18 43//43 41//41
f 18//18 44//44 43//43
f 45//45 18//18 19//19
f 45//45 44//44 18//18
f 46//46 19//19 21//21
f 46//46 45//45 19//19
f 21//21 23//23 46//46
f 46//46 23//23 47//47
f 41//41 42//42 26//26
f 42//42 25//25 26//26
f 42//42 48//48 25//25
f 41//41 26//26 17//17
f 28//28 47//47 23//23
f 28//28 49//49 47//47
f 48//48 30//30 25//25
f 50//50 30//30 48//48
f 31//31 52//52 51//51
f 49//49 31//31 51//51
f 28//28 31//31 49//49
f 52//52 53//53 51//51
f 32//32 30//30 54//54
f 30//30 55//55 54//54
f 30//30 50//50 55//55
f 54//54 34//34 32//32
f 57//57 56//56 52//52
f 31//31 57//57 52//52
f 37//37 57//57 31//31
f 52//52 56//56 53//53
f 55//55 58//58 54//54
f 54//54 58//58 34//34
f 58//58 38//38 34//34
f 58//58 59//59 38//38
f 59//59 61//61 60//60
f 39//39 59//59 60//60
f 38//38 59//59 39//39
f 39//39 60//60 62//62
f 63//63 39//39 62//62
f 40//40 39//39 63//63
f 37//37 40//40 57//57
f 57//57 40//40 63//63
f 61//61 64//64 60//60
f 60//60 64//64 62//62
f 66//66 65//65 43//43
f 43//43 65//65 42//42
f 67//67 43//43 44//44
f 67//67 66//66 43//43
f 68//68 44//44 45//45
f 68//68 67//67 44//44
f 69//69 45//45 46//46
f 69//69 68//68 45//45
f 46//46 47//47 69//69
f 69//69 47//47 70//70
f 65//65 48//48 42//42
f 71//71 48//48 65//65
f 49//49 70//70 47//47
f 49//49 72//72 70//70
f 71//71 50//50 48//48
f 73//73 50//50 71//71
f 49//49 51//51 74//74
f 75//75 49//49 74//74
f 72//72 49//49 75//75
f 53//53 74//74 51//51
f 77//77 55//55 76//76
f 55//55 73//73 76//76
f 55//55 50//50 73//73
f 78//78 77//77 76//76
f 75//75 74//74 56//56
f 57//57 75//75 56//56
f 79//79 75//75 57//57
f 56//56 74//74 53//53
f 77//77 58//58 55//55
f 78//78 80//80 77//77
f 80//80 58//58 77//77
f 80//80 59//59 58//58
f 82//82 81//81 61//61
f 59//59 82//82 61//61
f 80//80 82//82 59//59
f 63//63 62//62 81//81
f 82//82 63//63 81//81
f 83//83 63//63 82//82
f 57//57 63//63 79//79
f 79//79 63//63 83//83
f 81//81 64//64 61//61
f 64//64 81//81 62//62
f 84//84 65//65 66//66
f 67//67 85//85 66//66
f 66//66 85//85 84//84
f 68//68 86//86 67//67
f 67//67 86//86 85//85
f 69//69 87//87 68//68
f 68//68 87//87 86//86
f 70//70 87//87 69//69
f 88//88 71//71 84//84
f 84//84 71//71 65//65
f 85//85 90//90 89//89
f 88//88 85//85 89//89
f 84//84 85//85 88//88
f 90//90 85//85 86//86
f 90//90 86//86 91//91
f 93//93 92//92 91//91
f 86//86 93//93 91//91
f 87//87 93//93 86//86
f 72//72 93//93 70//70
f 70//70 93//93 87//87
f 94//94 73//73 88//88
f 88//88 73//73 71//71
f 88//88 89//89 95//95
f 88//88 95//95 94//94
f 92//92 93//93 96//96
f 92//92 96//96 97//97
f 75//75 96//96 72//72
f 72//72 96//96 93//93
f 94//94 76//76 73//73
f 99//99 98//98 78//78
f 99//99 78//78 76//76
f 95//95 99//99 76//76
f 94//94 95//95 76//76
f 101//101 100//100 98//98
f 101//101 98//98 99//99
f 100//100 101//101 97//97
f 96//96 100//100 97//97
f 102//102 100//100 96//96
f 79//79 102//102 75//75
f 75//75 102//102 96//96
f 98//98 80//80 78//78
f 80//80 98//98 82//82
f 82//82 98//98 100//100
f 82//82 100//100 83//83
f 83//83 100//100 102//102
f 83//83 102//102 79//79
f 103//103 89//89 90//90
f 91//91 104//104 90//90
f 90//90 104//104 103//103
f 92//92 104//104 91//91
f 105//105 95//95 103//103
f 103//103 95//95 89//89
f 106//106 103//103 104//104
f 105//105 103//103 106//106
f 97//97 106//106 92//92
f 92//92 106//106 104//104
f 105//105 99//99 95//95
f 99//99 105//105 101//101
f 101//101 105//105 106//106
f 101//101 106//106 97//97
f 109//109 108//108 107//107
f 111//111 110//110 107//107
f 107//107 110//110 109//109
f 111//111 112//112 110//110
f 115//115 114//114 113//113
f 115//115 113//113 108//108
f 113//113 107//107 108//108
f 113//113 116//116 107//107
f 107//107 117//117 111//111
f 107//107 116//116 117//117
f 112//112 111//111 118//118
f 118//118 111//111 117//117
f 114//114 119//119 113//113
f 121//121 120//120 119//119
f 120//120 113//113 119//119
f 120//120 116//116 113//113
f 123//123 117//117 122//122
f 117//117 120//120 122//122
f 117//117 116//116 120//120
f 117//117 123//123 118//118
f 121//121 124//124 120//120
f 120//120 124//124 122//122
f 127//127 126//126 125//125
f 129//129 128//128 125//125
f 125//125 128//128 127//127
f 131//131 130//130 129//129
f 129//129 130//130 128//128
f 133//133 132//132 131//131
f 131//131 132//132 130//130
f 133//133 134//134 132//132
f 125//125 126//126 135//135
f 135//135 126//126 136//136
f 135//135 108//108 109//109
f 129//129 135//135 109//109
f 125//125 135//135 129//129
f 129//129 109//109 110//110
f 129//129 110//110 131//131
f 131//131 110//110 112//112
f 137//137 131//131 112//112
f 133//133 131//131 137//137
f 134//134 133//133 138//138
f 138//138 133//133 137//137
f 135//135 136//136 115//115
f 136//136 114//114 115//115
f 136//136 139//139 114//114
f 135//135 115//115 108//108
f 118//118 140//140 137//137
f 118//118 137//137 112//112
f 138//138 137//137 141//141
f 141//141 137//137 140//140
f 119//119 114//114 142//142
f 114//114 143//143 142//142
f 114//114 139//139 143//143
f 142//142 121//121 119//119
f 122//122 144//144 123//123
f 144//144 145//145 123//123
f 123//123 145//145 118//118
f 145//145 146//146 118//118
f 146//146 140//140 118//118
f 140//140 146//146 141//141
f 143//143 147//147 142//142
f 142//142 147//147 121//121
f 147//147 124//124 121//121
f 147//147 148//148 124//124
f 122//122 124//124 144//144
f 124//124 149//149 144//144
f 124//124 148//148 149//149
f 144//144 149//149 145//145
f 151//151 150//150 127//127
f 127//127 150//150 126//126
f 152//152 127//127 128//128
f 152//152 151//151 127//127
f 153//153 128//128 130//130
f 153//153 152//152 128//128
f 154//154 130//130 132//132
f 154//154 153//153 130//130
f 132//132 134//134 154//154
f 154//154 134//134 155//155
f 150//150 136//136 126//126
f 156//156 136//136 150//150
f 138//138 155//155 134//134
f 138//138 157//157 155//155
f 156//156 139//139 136//136
f 158//158 139//139 156//156
f 141//141 157//157 138//138
f 141//141 159//159 157//157
f 158//158 143//143 139//139
f 160//160 143//143 158//158
f 162//162 161//161 146//146
f 162//162 146//146 145//145
f 141//141 146//146 159//159
f 159//159 146//146 161//161
f 160//160 163//163 143//143
f 143//143 163//163 147//147
f 147//147 164//164 148//148
f 163//163 164//164 147//147
f 148//148 165//165 149//149
f 164//164 165//165 148//148
f 145//145 149//149 162//162
f 162//162 149//149 165//165
f 167//167 166//166 151//151
f 151//151 166//166 150//150
f 168//168 151//151 152//152
f 168//168 167//167 151//151
f 169//169 152//152 153//153
f 169//169 168//168 152//152
f 171//171 169//169 170//170
f 169//169 154//154 170//170
f 169//169 153//153 154//154
f 155//155 170//170 154//154
f 166//166 156//156 150//150
f 172//172 156//156 166//166
f 173//173 171//171 170//170
f 170//170 155//155 173//173
f 155//155 174//174 173//173
f 155//155 157//157 174//174
f 172//172 158//158 156//156
f 175//175 158//158 172//172
f 178//178 177//177 176//176
f 177//177 174//174 176//176
f 174//174 159//159 176//176
f 174//174 157//157 159//159
f 175//175 160//160 158//158
f 179//179 160//160 175//175
f 178//178 176//176 161//161
f 162//162 178//178 161//161
f 180//180 178//178 162//162
f 161//161 176//176 159//159
f 179//179 181//181 160//160
f 160//160 181//181 163//163
f 163//163 182//182 164//164
f 181//181 182//182 163//163
f 164//164 183//183 165//165
f 182//182 183//183 164//164
f 162//162 165//165 180//180
f 180//180 165//165 183//183
f 184//184 166//166 167//167
f 168//168 185//185 167//167
f 167//167 185//185 184//184
f 169//169 186//186 168//168
f 168//168 186//186 185//185
f 171//171 186//186 169//169
f 187//187 172//172 184//184
f 184//184 172//172 166//166
f 188//188 184//184 185//185
f 187//187 184//184 188//188
f 189//189 185//185 186//186
f 188//188 185//185 189//189
f 173//173 190//190 171//171
f 190//190 186//186 171//171
f 190//190 189//189 186//186
f 174//174 190//190 173//173
f 191//191 175//175 187//187
f 187//187 175//175 172//172
f 192//192 187//187 188//188
f 191//191 187//187 192//192
f 193//193 188//188 189//189
f 192//192 188//188 193//193
f 178//178 193//193 177//177
f 193//193 190//190 177//177
f 193//193 189//189 190//190
f 177//177 190//190 174//174
f 194//194 179//179 191//191
f 191//191 179//179 175//175
f 195//195 191//191 192//192
f 194//194 191//191 195//195
f 196//196 192//192 193//193
f 195//195 192//192 196//196
f 180//180 196//196 178//178
f 178//178 196//196 193//193
f 194//194 181//181 179//179
f 181//181 194//194 182//182
f 182//182 194//194 195//195
f 182//182 195//195 183//183
f 183//183 195//195 196//196
f 183//183 196//196 180//180
f 199//199 198//198 197//197
f 201//201 200//200 197//197
f 197//197 200//200 199//199
f 203//203 202//202 201//201
f 201//201 202//202 200//200
f 203//203 204//204 202//202
f 197//197 198//198 205//205
f 205//205 198//198 206//206
f 197//197 207//207 201//201
f 197//197 205//205 207//207
f 201//201 208//208 203//203
f 201//201 207//207 208//208
f 204//204 203//203 209//209
f 203//203 210//210 209//209
f 203//203 208//208 210//210
f 210//210 211//211 209//209
f 205//205 206//206 212//212
f 212//212 206//206 213//213
f 205//205 214//214 207//207
f 205//205 212//212 214//214
f 207//207 215//215 208//208
f 207//207 214//214 215//215
f 208//208 216//216 210//210
f 208//208 215//215 216//216
f 211//211 210//210 217//217
f 217//217 210//210 216//216
f 213//213 218//218 212//212
f 220//220 219//219 218//218
f 219//219 212//212 218//218
f 219//219 214//214 212//212
f 214//214 221//221 215//215
f 214//214 219//219 221//221
f 223//223 216//216 222//222
f 216//216 221//221 222//222
f 216//216 215//215 221//221
f 216//216 223//223 217//217
f 220//220 224//224 219//219
f 219//219 224//224 221//221
f 221//221 224//224 225//225
f 221//221 225//225 222//222
f 227//227 226//226 199//199
f 199//199 226//226 198//198
f 228//228 199//199 200//200
f 228//228 227//227 199//199
f 229//229 200//200 202//202
f 229//229 228//228 200//200
f 202//202 204//204 229//229
f 229//229 204//204 230//230
f 233//233 232//232 231//231
f 226//226 233//233 231//231
f 206//206 226//226 231//231
f 198//198 226//226 206//206
f 234//234 230//230 204//204
f 234//234 204//204 209//209
f 209//209 211//211 234//234
f 234//234 211//211 235//235
f 231//231 232//232 236//236
f 236//236 232//232 237//237
f 236//236 213//213 206//206
f 236//236 206//206 231//231
f 217//217 235//235 211//211
f 217//217 238//238 235//235
f 237//237 239//239 236//236
f 239//239 241//241 240//240
f 239//239 240//240 218//218
f 236//236 239//239 218//218
f 213//213 236//236 218//218
f 240//240 220//220 218//218
f 222//222 242//242 223//223
f 242//242 243//243 223//223
f 243//243 217//217 223//223
f 243//243 238//238 217//217
f 241//241 244//244 240//240
f 240//240 244//244 220//220
f 244//244 224//224 220//220
f 244//244 245//245 224//224
f 224//224 246//246 225//225
f 245//245 246//246 224//224
f 222//222 225//225 242//242
f 225//225 247//247 242//242
f 225//225 246//246 247//247
f 242//242 247//247 243//243
f 249//249 248//248 227//227
f 227//227 248//248 226//226
f 250//250 227//227 228//228
f 250//250 249//249 227//227
f 251//251 228//228 229//229
f 251//251 250//250 228//228
f 229//229 230//230 251//251
f 251//251 230//230 252//252
f 254//254 253//253 233//233
f 233//233 253//253 232//232
f 233//233 226//226 248//248
f 233//233 248//248 254//254
f 255//255 252//252 230//230
f 255//255 230//230 234//234
f 234//234 235//235 255//255
f 255//255 235//235 256//256
f 253//253 237//237 232//232
f 257//257 237//237 253//253
f 238//238 256//256 235//235
f 238//238 258//258 256//256
f 257//257 259//259 237//237
f 237//237 259//259 239//239
f 241//241 239//239 259//259
f 241//241 259//259 260//260
f 263//263 262//262 261//261
f 262//262 258//258 261//261
f 258//258 243//243 261//261
f 258//258 238//238 243//243
f 260//260 264//264 241//241
f 241//241 264//264 244//244
f 244//244 265//265 245//245
f 264//264 265//265 244//244
f 245//245 266//266 246//246
f 265//265 266//266 245//245
f 261//261 247//247 263//263
f 247//247 266//266 263//263
f 247//247 246//246 266//266
f 247//247 261//261 243//243
f 267//267 248//248 249//249
f 267//267 249//249 268//268
f 249//249 269//269 268//268
f 249//249 250//250 269//269
f 271//271 269//269 270//270
f 269//269 251//251 270//270
f 269//269 250//250 251//251
f 252//252 270//270 251//251
f 272//272 253//253 254//254
f 273//273 272//272 254//254
f 273//273 254//254 248//248
f 274//274 273//273 248//248
f 267//267 274//274 248//248
f 274//274 267//267 268//268
f 275//275 271//271 270//270
f 277//277 275//275 276//276
f 276//276 275//275 255//255
f 275//275 270//270 255//255
f 270//270 252//252 255//255
f 256//256 276//276 255//255
f 278//278 257//257 272//272
f 272//272 257//257 253//253
f 272//272 273//273 279//279
f 272//272 279//279 278//278
f 277//277 276//276 280//280
f 277//277 280//280 281//281
f 258//258 280//280 256//256
f 256//256 280//280 276//276
f 278//278 259//259 257//257
f 283//283 282//282 260//260
f 283//283 260//260 259//259
f 279//279 283//283 259//259
f 278//278 279//279 259//259
f 285//285 284//284 282//282
f 285//285 282//282 283//283
f 287//287 286//286 284//284
f 287//287 284//284 285//285
f 286//286 287//287 281//281
f 286//286 281//281 280//280
f 263//263 286//286 280//280
f 262//262 263//263 280//280
f 262//262 280//280 258//258
f 282//282 264//264 260//260
f 264//264 282//282 265//265
f 265//265 282//282 284//284
f 265//265 284//284 266//266
f 266//266 284//284 286//286
f 266//266 286//286 263//263
f 288//288 268//268 269//269
f 271//271 288//288 269//269
f 289//289 273//273 274//274
f 268//268 288//288 274//274
f 288//288 289//289 274//274
f 288//288 290//290 289//289
f 275//275 291//291 271//271
f 291//291 288//288 271//271
f 291//291 290//290 288//288
f 277//277 291//291 275//275
f 292//292 279//279 289//289
f 289//289 279//279 273//273
f 293//293 289//289 290//290
f 292//292 289//289 293//293
f 294//294 290//290 291//291
f 293//293 290//290 294//294
f 281//281 294//294 277//277
f 277//277 294//294 291//291
f 292//292 283//283 279//279
f 283//283 292//292 285//285
f 285//285 292//292 293//293
f 285//285 293//293 287//287
f 287//287 293//293 294//294
f 287//287 294//294 281//281
f 297//297 296//296 295//295
f 299//299 298//298 295//295
f 295//295 298//298 297//297
f 299//299 300//300 298//298
f 296//296 301//301 295//295
f 295//295 301//301 299//299
f 299//299 301//301 302//302
f 299//299 302//302 300//300
f 305//305 304//304 303//303
f 307//307 306//306 303//303
f 303//303 306//306 305//305
f 307//307 308//308 306//306
f 311//311 310//310 309//309
f 311//311 309//309 304//304
f 309//309 303//303 304//304
f 309//309 312//312 303//303
f 303//303 313//313 307//307
f 303//303 312//312 313//313
f 308//308 307//307 314//314
f 307//307 315//315 314//314
f 307//307 313//313 315//315
f 315//315 316//316 314//314
f 309//309 310//310 317//317
f 317//317 310//310 318//318
f 317//317 296//296 297//297
f 312//312 317//317 297//297
f 309//309 317//317 312//312
f 312//312 297//297 298//298
f 312//312 298//298 313//313
f 313//313 298//298 300//300
f 319//319 313//313 300//300
f 315//315 313//313 319//319
f 316//316 315//315 320//320
f 320//320 315//315 319//319
f 317//317 318//318 321//321
f 321//321 318//318 322//322
f 323//323 301//301 296//296
f 317//317 323//323 296//296
f 321//321 323//323 317//317
f 324//324 302//302 301//301
f 324//324 301//301 323//323
f 319//319 300//300 302//302
f 324//324 319//319 302//302
f 325//325 319//319 324//324
f 320//320 319//319 326//326
f 326//326 319//319 325//325
f 322//322 327//327 321//321
f 321//321 327//327 323//323
f 323//323 327//327 328//328
f 330//330 329//329 328//328
f 329//329 323//323 328//328
f 329//329 324//324 323//323
f 332//332 325//325 331//331
f 325//325 329//329 331//331
f 325//325 324//324 329//329
f 325//325 332//332 326//326
f 330//330 333//333 329//329
f 329//329 333//333 331//331
f 336//336 335//335 334//334
f 304//304 305//305 334//334
f 305//305 336//336 334//334
f 305//305 337//337 336//336
f 338//338 305//305 306//306
f 338//338 337//337 305//305
f 306//306 308//308 338//338
f 338//338 308//308 339//339
f 334//334 335//335 311//311
f 335//335 310//310 311//311
f 335//335 340//340 310//310
f 334//334 311//311 304//304
f 341//341 339//339 308//308
f 341//341 308//308 314//314
f 314//314 316//316 341//341
f 341//341 316//316 342//342
f 340//340 318//318 310//310
f 343//343 318//318 340//340
f 320//320 342//342 316//316
f 320//320 344//344 342//342
f 343//343 322//322 318//318
f 345//345 322//322 343//343
f 326//326 344//344 320//320
f 326//326 346//346 344//344
f 345//345 347//347 322//322
f 322//322 347//347 327//327
f 347//347 349//349 348//348
f 328//328 347//347 348//348
f 327//327 347//347 328//328
f 348//348 330//330 328//328
f 351//351 350//350 332//332
f 351//351 332//332 331//331
f 326//326 332//332 346//346
f 346//346 332//332 350//350
f 349//349 352//352 348//348
f 348//348 352//352 330//330
f 352//352 333//333 330//330
f 352//352 353//353 333//333
f 331//331 333//333 351//351
f 351//351 333//333 353//353
f 354//354 335//335 336//336
f 354//354 336//336 355//355
f 336//336 356//356 355//355
f 336//336 337//337 356//356
f 357//357 337//337 338//338
f 357//357 356//356 337//337
f 338//338 339//339 357//357
f 357//357 339//339 358//358
f 360//360 359//359 354//354
f 359//359 335//335 354//354
f 359//359 340//340 335//335
f 360//360 354//354 355//355
f 339//339 341//341 361//361
f 362//362 339//339 361//361
f 358//358 339//339 362//362
f 342//342 361//361 341//341
f 359//359 343//343 340//340
f 363//363 343//343 359//359
f 364//364 362//362 361//361
f 361//361 342//342 364//364
f 342//342 365//365 364//364
f 342//342 344//344 365//365
f 363//363 345//345 343//343
f 366//366 345//345 363//363
f 369//369 368//368 367//367
f 368//368 365//365 367//367
f 365//365 346//346 367//367
f 365//365 344//344 346//346
f 366//366 370//370 345//345
f 345//345 370//370 347//347
f 349//349 347//347 370//370
f 349//349 370//370 371//371
f 374//374 373//373 372//372
f 372//372 373//373 369//369
f 372//372 369//369 367//367
f 351//351 372//372 367//367
f 350//350 351//351 367//367
f 350//350 367//367 346//346
f 371//371 375//375 349//349
f 349//349 375//375 352//352
f 372//372 353//353 374//374
f 353//353 375//375 374//374
f 353//353 352//352 375//375
f 353//353 372//372 351//351
f 376//376 355//355 356//356
f 357//357 377//377 356//356
f 356//356 377//377 376//376
f 358//358 377//377 357//357
f 378//378 359//359 360//360
f 379//379 378//378 360//360
f 379//379 360//360 355//355
f 380//380 379//379 355//355
f 376//376 380//380 355//355
f 382//382 381//381 380//380
f 376//376 382//382 380//380
f 377//377 382//382 376//376
f 362//362 382//382 358//358
f 358//358 382//382 377//377
f 384//384 383//383 378//378
f 383//383 359//359 378//378
f 383//383 363//363 359//359
f 384//384 378//378 379//379
f 381//381 382//382 385//385
f 381//381 385//385 386//386
f 364//364 387//387 362//362
f 387//387 382//382 362//362
f 387//387 385//385 382//382
f 365//365 387//387 364//364
f 389//389 366//366 388//388
f 366//366 383//383 388//388
f 366//366 363//363 383//383
f 390//390 389//389 388//388
f 386//386 385//385 391//391
f 386//386 391//391 392//392
f 369//369 391//391 368//368
f 391//391 387//387 368//368
f 391//391 385//385 387//387
f 368//368 387//387 365//365
f 389//389 370//370 366//366
f 394//394 393//393 371//371
f 394//394 371//371 370//370
f 390//390 394//394 370//370
f 389//389 390//390 370//370
f 393//393 394//394 392//392
f 393//393 392//392 391//391
f 374//374 393//393 391//391
f 373//373 374//374 391//391
f 373//373 391//391 369//369
f 393//393 375//375 371//371
f 375//375 393//393 374//374
f 395//395 379//379 380//380
f 381//381 395//395 380//380
f 396//396 383//383 384//384
f 379//379 395//395 384//384
f 395//395 396//396 384//384
f 395//395 397//397 396//396
f 386//386 397//397 381//381
f 381//381 397//397 395//395
f 396//396 388//388 383//383
f 388//388 396//396 390//390
f 396//396 398//398 390//390
f 396//396 397//397 398//398
f 392//392 398//398 386//386
f 386//386 398//398 397//397
f 398//398 394//394 390//390
f 394//394 398//398 392//392
