# Created by Open3D 
# object name: tibia_ball_mask
# number of vertices: 386
# number of triangles: 756
v -0.0379326 -0.0608078 0.0136448
vn 0.221374 -0.863672 -0.45284
v -0.0375917 -0.0606449 0.0137176
vn 0.791323 -0.560656 -0.243868
v -0.0376979 -0.0604965 0.0134689
vn 0.477339 -0.274492 -0.834747
v -0.0383363 -0.0604307 0.0132588
vn 0.100749 -0.481147 -0.870831
v -0.0386396 -0.0608897 0.013649
vn -0.022125 -0.870828 -0.491089
v -0.0391692 -0.0605832 0.0134067
vn -0.190161 -0.441235 -0.877012
v -0.0393872 -0.0608206 0.0137216
vn -0.260006 -0.879307 -0.399019
v -0.0396315 -0.0605572 0.013548
vn -0.425416 -0.463437 -0.777334
v -0.0378014 -0.0608975 0.0143114
vn 0.415631 -0.90919 -0.0249864
v -0.0374719 -0.0605649 0.0143572
vn 0.910066 -0.414043 -0.0186414
v -0.0384746 -0.0610716 0.014299
vn 0.0980512 -0.988259 -0.117177
v -0.0392285 -0.0610444 0.0143708
vn -0.199741 -0.97024 -0.136886
v -0.0399123 -0.0606449 0.0139001
vn -0.590069 -0.693324 -0.413666
v -0.0399157 -0.0608138 0.0144143
vn -0.491133 -0.863335 -0.11594
v -0.0401782 -0.0604549 0.0141901
vn -0.898668 -0.366999 -0.240223
v -0.0377606 -0.0608099 0.0150476
vn 0.532868 -0.828749 0.170958
v -0.0374768 -0.0603888 0.0151466
vn 0.93796 -0.292429 0.186325
v -0.0384784 -0.0610431 0.0151111
vn 0.175002 -0.968703 0.176035
v -0.0390733 -0.0610845 0.0150029
vn -0.112185 -0.986098 0.122577
v -0.0397866 -0.0608464 0.0151832
vn -0.422389 -0.885203 0.194945
v -0.0401719 -0.0605625 0.0148985
vn -0.884243 -0.448912 0.128814
v -0.0377793 -0.0606653 0.0155165
vn 0.614386 -0.683578 0.39402
v -0.0383299 -0.0608246 0.015696
vn 0.194795 -0.863516 0.465182
v -0.0380621 -0.060562 0.0158844
vn 0.352949 -0.481389 0.802304
v -0.039129 -0.0608496 0.0157163
vn -0.0925977 -0.876478 0.472453
v -0.0395996 -0.0606559 0.0157537
vn -0.543232 -0.556889 0.62831
v -0.040022 -0.0604571 0.0153876
vn -0.814361 -0.239747 0.528524
v -0.038632 -0.0604852 0.0160362
vn 0.0654266 -0.356905 0.931847
v -0.0392831 -0.0605261 0.0159877
vn -0.227357 -0.339473 0.912725
v -0.0385623 -0.0599428 0.0129568
vn -0.285533 -0.506444 -0.813625
v -0.0383818 -0.0599147 0.0129667
vn 0.495898 -0.291983 -0.817821
v -0.0384968 -0.0598553 0.0129214
vn 0.0342198 0.0438919 -0.99845
v -0.0386151 -0.0597763 0.0129648
vn -0.375724 0.351481 -0.857492
v -0.0374676 -0.060079 0.0136742
vn 0.907193 -0.0758321 -0.413825
v -0.0379099 -0.0597145 0.0132612
vn 0.499371 0.0636258 -0.864049
v -0.0389593 -0.0598806 0.0131385
vn -0.296565 -0.0794932 -0.951698
v -0.0398001 -0.0599351 0.0134498
vn -0.421702 -0.0862707 -0.902621
v -0.0400112 -0.0602549 0.0136757
vn -0.751713 -0.277844 -0.598105
v -0.0401471 -0.0597313 0.0137825
vn -0.915895 0.0886691 -0.391503
v -0.0373223 -0.0598679 0.0143133
vn 0.996296 -0.0367342 -0.0777537
v -0.0403315 -0.0600219 0.0144599
vn -0.99651 -0.0287552 -0.0783625
v -0.0373425 -0.0597209 0.0149482
vn 0.98611 0.0737132 0.148841
v -0.0402694 -0.0598831 0.0149948
vn -0.96669 0.0285336 0.254355
v -0.0376756 -0.0602892 0.0157515
vn 0.770915 -0.295355 0.564318
v -0.0375594 -0.0598 0.0156592
vn 0.900672 0.0904403 0.424983
v -0.0400126 -0.0596181 0.0154707
vn -0.787255 0.0731165 0.612278
v -0.0396265 -0.0601071 0.0158837
vn -0.616542 -0.0366656 0.786468
v -0.0379018 -0.059964 0.015997
vn 0.359327 -0.0917601 0.928689
v -0.0386063 -0.0596824 0.0161753
vn 0.0693409 0.00172401 0.997592
v -0.0391452 -0.0598416 0.0161206
vn -0.240177 -0.0126803 0.970646
v -0.0384216 -0.0597378 0.0129706
vn 0.319853 0.45521 -0.83095
v -0.0375474 -0.0593112 0.0136315
vn 0.882525 0.167814 -0.439304
v -0.0378404 -0.0590353 0.013455
vn 0.306708 0.422706 -0.85279
v -0.038589 -0.0592412 0.0132455
vn -0.00196087 0.4634 -0.886147
v -0.03942 -0.059249 0.0133799
vn -0.256627 0.259756 -0.930951
v -0.0399229 -0.0594377 0.013557
vn -0.618926 0.234834 -0.749522
v -0.0396083 -0.0590969 0.0135082
vn -0.44389 0.574365 -0.687799
v -0.0374422 -0.0592151 0.0142867
vn 0.929495 0.364797 -0.0544295
v -0.0399073 -0.0590436 0.0138659
vn -0.687142 0.56617 -0.455287
v -0.0401922 -0.0592272 0.0144231
vn -0.940446 0.328565 -0.0872104
v -0.037514 -0.0591507 0.0150748
vn 0.908279 0.373149 0.189178
v -0.0401308 -0.0592091 0.0151008
vn -0.922771 0.281712 0.262928
v -0.0377707 -0.0590139 0.0154853
vn 0.684007 0.566628 0.45942
v -0.0378108 -0.0594675 0.0159107
vn 0.626079 0.283172 0.726525
v -0.0381367 -0.0590035 0.0158566
vn 0.380897 0.628165 0.678474
v -0.0398954 -0.0591024 0.015429
vn -0.679273 0.445659 0.583075
v -0.0394995 -0.0592826 0.0158759
vn -0.541686 0.221769 0.810799
v -0.0383002 -0.0592545 0.0160533
vn 0.180574 0.322466 0.929198
v -0.0390031 -0.0591617 0.0160313
vn -0.154054 0.389742 0.907947
v -0.0377026 -0.0589424 0.0136787
vn 0.677606 0.68771 -0.260585
v -0.0382628 -0.0586681 0.0136921
vn 0.234337 0.753075 -0.614788
v -0.0391282 -0.0587811 0.0135925
vn -0.180459 0.655668 -0.733167
v -0.0377811 -0.0587175 0.0144134
vn 0.701777 0.70422 -0.107622
v -0.038257 -0.0583576 0.0142512
vn 0.491596 0.831053 -0.260162
v -0.0387177 -0.0583752 0.0139828
vn -0.0153002 0.850465 -0.52581
v -0.0393889 -0.058482 0.0140609
vn -0.406833 0.767882 -0.494817
v -0.0398756 -0.0587596 0.0143503
vn -0.68934 0.722824 -0.0483201
v -0.0394003 -0.0583813 0.0143864
vn -0.533543 0.844868 0.0391159
v -0.0376814 -0.0588396 0.0150781
vn 0.725366 0.665244 0.176901
v -0.0381078 -0.0584572 0.0149014
vn 0.523975 0.828375 0.198105
v -0.0393517 -0.0585169 0.015021
vn -0.454784 0.812603 0.364483
v -0.0391162 -0.0583015 0.0147724
vn -0.279769 0.938527 0.202227
v -0.0387769 -0.0583696 0.0152112
vn -0.188124 0.84856 0.494524
v -0.0399568 -0.0589184 0.0150198
vn -0.650497 0.720757 0.239503
v -0.0387226 -0.0587623 0.0157464
vn -0.0983881 0.736394 0.669361
v -0.0383683 -0.0585258 0.0154025
vn 0.343822 0.800612 0.490721
v -0.0393924 -0.0589151 0.0157023
vn -0.390331 0.727825 0.563838
v -0.0384645 -0.0582512 0.0144342
vn 0.167322 0.984376 -0.0548332
v -0.0390583 -0.0582753 0.0143524
vn -0.123677 0.98239 -0.140046
v -0.0386144 -0.0582784 0.0149456
vn 0.116101 0.976076 0.183837
v -0.0176897 -0.00199725 -0.000359305
vn 0.165238 -0.90665 -0.388178
v -0.0173333 -0.00185716 -0.000307782
vn 0.630387 -0.741728 -0.229022
v -0.0174085 -0.00172686 -0.000554651
vn 0.430676 -0.456454 -0.778568
v -0.018048 -0.00165625 -0.000773191
vn 0.0837193 -0.59409 -0.80003
v -0.0184133 -0.00207558 -0.00028508
vn -0.0685166 -0.918402 -0.389671
v -0.018805 -0.00184493 -0.000531048
vn -0.207453 -0.624979 -0.752572
v -0.018968 -0.0019566 -0.000254125
vn -0.462079 -0.845463 -0.267722
v -0.019082 -0.00170935 -0.000438461
vn -0.733937 -0.36785 -0.570984
v -0.0175724 -0.00207881 0.000321916
vn 0.33901 -0.940291 -0.0304097
v -0.017078 -0.00176647 0.000455328
vn 0.674831 -0.732312 -0.0912309
v -0.0182169 -0.00220732 0.000347851
vn 0.0204887 -0.999172 -0.0351566
v -0.0188793 -0.00210147 0.000378582
vn -0.41015 -0.911278 -0.0367345
v -0.0193273 -0.00170788 0.000106248
vn -0.76087 -0.610084 -0.221077
v -0.0174138 -0.00197878 0.000982414
vn 0.361007 -0.917597 0.166401
v -0.0172119 -0.00185411 0.00105925
vn 0.636901 -0.729102 0.250534
v -0.018011 -0.00210666 0.00102675
vn 0.122675 -0.953878 0.273984
v -0.0187642 -0.00207864 0.00107842
vn -0.221027 -0.949746 0.221652
v -0.0192872 -0.00174995 0.00106514
vn -0.674992 -0.698842 0.236653
v -0.0174618 -0.00177362 0.00141014
vn 0.357147 -0.753775 0.551607
v -0.0184313 -0.00190137 0.00150365
vn 0.010466 -0.795975 0.605239
v -0.0189703 -0.00182421 0.00144042
vn -0.469824 -0.660239 0.585961
v -0.0182803 -0.00123377 -0.0010771
vn -0.227095 -0.467144 -0.85452
v -0.0179793 -0.00115451 -0.00108658
vn 0.369225 -0.336284 -0.866363
v -0.0181752 -0.000967245 -0.00116406
vn 7.68496e-06 -0.0895301 -0.995984
v -0.0185148 -0.000827389 -0.00108879
vn -0.476065 -0.0576434 -0.877519
v -0.0169728 -0.00134924 -0.0003277
vn 0.715545 -0.506081 -0.481536
v -0.0173348 -0.00096281 -0.000806576
vn 0.475884 -0.201508 -0.856113
v -0.0188238 -0.00132426 -0.000790595
vn -0.499529 -0.281555 -0.819266
v -0.0193585 -0.000993033 -0.000387926
vn -0.750764 -0.1205 -0.649487
v -0.0166845 -0.00131914 0.000288088
vn 0.787914 -0.594227 -0.161512
v -0.0165342 -0.00102198 0.000384404
vn 0.974387 -0.219743 -0.0477812
v -0.0166515 -0.000995803 -0.000150593
vn 0.868369 -0.344598 -0.356633
v -0.0196572 -0.00112833 7.97492e-05
vn -0.844783 -0.316404 -0.431544
v -0.01965 -0.00139635 0.000577964
vn -0.847305 -0.527284 -0.0636051
v -0.0197638 -0.000948595 0.000305277
vn -0.98779 -0.0973879 -0.121603
v -0.0167769 -0.00142543 0.000973579
vn 0.784 -0.579312 0.223028
v -0.0165659 -0.000910711 0.00103369
vn 0.953442 -0.118046 0.277514
v -0.0196453 -0.00136676 0.00104448
vn -0.833463 -0.487027 0.261046
v -0.0197478 -0.00104598 0.000907992
vn -0.989808 -0.0924525 0.108316
v -0.0168652 -0.00119229 0.0014616
vn 0.747407 -0.352265 0.563286
v -0.017388 -0.00136968 0.00181613
vn 0.424708 -0.505993 0.750729
v -0.0171369 -0.000855486 0.00182786
vn 0.628699 -0.0645073 0.774968
v -0.0179983 -0.00150003 0.00188125
vn 0.0793924 -0.585185 0.807004
v -0.0187746 -0.00141436 0.00187502
vn -0.24686 -0.523177 0.815688
v -0.0192292 -0.00115554 0.00169097
vn -0.737187 -0.232179 0.634546
v -0.0196129 -0.00110151 0.00124638
vn -0.790003 -0.16331 0.590953
v -0.0176509 -0.00104907 0.00201651
vn 0.180195 -0.1597 0.97058
v -0.018442 -0.00103011 0.00207372
vn -0.0432683 -0.146031 0.988333
v -0.0189666 -0.000950505 0.0019852
vn -0.445301 -0.0978737 0.890015
v -0.0178801 -0.00056421 -0.00111238
vn 0.367756 0.026115 -0.929556
v -0.0182385 -0.000444557 -0.00116133
vn -0.0700415 0.085793 -0.993848
v -0.0184165 -0.000256917 -0.00107538
vn -0.423559 0.323941 -0.845967
v -0.01677 -0.000728798 -0.000498949
vn 0.654031 -0.219535 -0.723912
v -0.016607 -0.0004766 -0.000297555
vn 0.947162 0.0170268 -0.320304
v -0.0168878 -0.000195193 -0.000588185
vn 0.539021 0.186587 -0.821366
v -0.0175993 -0.000114345 -0.000919517
vn 0.346093 0.281518 -0.894967
v -0.0189299 -0.000381453 -0.000785397
vn -0.598771 0.133649 -0.789691
v -0.0193519 -6.55755e-05 -0.000289403
vn -0.794326 0.292515 -0.53243
v -0.016506 -0.000406702 0.000337293
vn 0.990208 0.136506 -0.0292216
v -0.0196608 -0.000545508 3.60353e-06
vn -0.878248 0.0858114 -0.470443
v -0.0197572 -0.000446403 0.00048179
vn -0.992662 0.116775 -0.0313909
v -0.0165744 -0.000286057 0.000977181
vn 0.958828 0.180501 0.219246
v -0.0197134 -0.000589577 0.00101293
vn -0.939489 0.150216 0.307888
v -0.0196737 -0.000186181 0.000658624
vn -0.854297 0.47868 0.202587
v -0.0195218 -0.000354019 0.00123143
vn -0.831037 0.306853 0.463916
v -0.0167964 -0.000366436 0.00136975
vn 0.757924 0.285807 0.5864
v -0.0172093 -0.000283882 0.00179992
vn 0.591489 0.391766 0.704741
v -0.0191556 -0.000345595 0.00178466
vn -0.739999 0.198455 0.642664
v -0.0174295 -0.000473255 0.00197801
vn 0.283026 0.141098 0.948677
v -0.0180298 -0.000424364 0.00205835
vn 0.039154 0.183299 0.982277
v -0.0187841 -0.000386732 0.00200217
vn -0.197187 0.211198 0.957347
v -0.0181057 -0.000164254 -0.001085
vn 0.115007 0.433781 -0.893648
v -0.0167051 -3.90549e-05 -0.000242493
vn 0.849069 0.477914 -0.225124
v -0.017109 0.000373799 -0.000434683
vn 0.604702 0.658731 -0.44767
v -0.0174555 0.000405148 -0.000607839
vn 0.2111 0.613231 -0.761173
v -0.0183321 0.000251745 -0.000785311
vn -0.124835 0.572231 -0.810536
v -0.0189856 0.000307194 -0.000530501
vn -0.501683 0.369313 -0.782255
v -0.0190832 0.000457378 -0.000263242
vn -0.735118 0.628028 -0.255307
v -0.016691 5.71868e-05 0.000529894
vn 0.815836 0.577673 0.0265628
v -0.0170771 0.000474653 9.58039e-05
vn 0.629139 0.776796 -0.027801
v -0.0196361 -0.000135723 0.000235682
vn -0.858254 0.45512 -0.237207
v -0.0193376 0.000310187 0.000482745
vn -0.778412 0.627298 0.0239173
v -0.0166749 -8.10767e-05 0.00102584
vn 0.707361 0.591423 0.387117
v -0.0171112 0.000389407 0.000926195
vn 0.612999 0.734164 0.291952
v -0.0191547 0.000326834 0.00126733
vn -0.75006 0.551667 0.364792
v -0.017671 -1.1688e-05 0.0018464
vn 0.190766 0.546696 0.815311
v -0.0173773 0.00028932 0.00143499
vn 0.501434 0.643915 0.577874
v -0.0184296 8.02733e-05 0.00184407
vn -0.0469159 0.568475 0.821362
v -0.0180051 0.000481429 0.00146122
vn 0.0748479 0.769349 0.634428
v -0.0189594 5.05114e-05 0.00174937
vn -0.397411 0.542303 0.740252
v -0.0188012 0.000497369 0.00135804
vn -0.195019 0.80453 0.56098
v -0.0174945 0.000653138 -0.000216389
vn 0.237742 0.947514 -0.213768
v -0.0181918 0.000678963 -0.000337978
vn -0.0225255 0.899967 -0.435376
v -0.0187993 0.000555135 -0.000417202
vn -0.228303 0.816553 -0.530206
v -0.0175616 0.000719455 0.000559464
vn 0.297618 0.952008 0.0714484
v -0.0182526 0.000816159 0.000344712
vn -0.0201981 0.999198 -0.0345675
v -0.0188588 0.000687476 0.000123716
vn -0.368864 0.9227 -0.112094
v -0.0175785 0.000612021 0.00111064
vn 0.293702 0.883316 0.365365
v -0.0182368 0.000733986 0.00100475
vn -0.00646175 0.960641 0.277719
v -0.0189195 0.000651555 0.000868484
vn -0.39246 0.908708 0.142215
v -0.0386265 0.0350522 0.0031569
vn 0.228928 -0.940932 -0.249477
v -0.0382409 0.0352939 0.00311241
vn 0.772556 -0.604948 -0.192857
v -0.0384104 0.0353207 0.00276522
vn 0.397901 -0.710041 -0.580962
v -0.0389513 0.0352349 0.00272815
vn 0.00881275 -0.779732 -0.626051
v -0.0393967 0.0349721 0.00319796
vn -0.0436524 -0.92236 -0.383859
v -0.0398726 0.0353766 0.00274276
vn -0.299434 -0.682397 -0.666838
v -0.0400783 0.0350563 0.00326448
vn -0.282798 -0.894972 -0.345037
v -0.0403494 0.0353122 0.0030538
vn -0.473236 -0.622709 -0.623122
v -0.038501 0.0350253 0.00385311
vn 0.441258 -0.897157 0.0200142
v -0.0380561 0.0354485 0.00399074
vn 0.82116 -0.560879 0.105412
v -0.0392024 0.0348634 0.00384903
vn 0.0804627 -0.996546 0.0205148
v -0.0397897 0.0348802 0.00372756
vn -0.177355 -0.983873 -0.023214
v -0.0405689 0.0352296 0.00345651
vn -0.611431 -0.752402 -0.245038
v -0.0404698 0.0351084 0.00397264
vn -0.44502 -0.890602 0.0937279
v -0.0408109 0.035478 0.00376167
vn -0.930562 -0.365521 -0.0211793
v -0.0384217 0.0351504 0.00444358
vn 0.534074 -0.812281 0.234443
v -0.0383083 0.0354021 0.00462481
vn 0.786977 -0.343949 0.512217
v -0.0389754 0.0349986 0.00449273
vn 0.124494 -0.938405 0.32233
v -0.0398345 0.0350161 0.00451697
vn -0.160315 -0.934295 0.31842
v -0.0403852 0.0353477 0.00467336
vn -0.535041 -0.649557 0.540191
v -0.0407032 0.035359 0.00424259
vn -0.814115 -0.527312 0.243225
v -0.0385839 0.0352405 0.00472778
vn 0.311593 -0.632629 0.709006
v -0.039303 0.0352863 0.00497702
vn 0.127403 -0.711994 0.690531
v -0.0399749 0.0353018 0.00496247
vn -0.286613 -0.672626 0.682222
v -0.0385866 0.0357281 0.00233864
vn 0.174414 -0.509804 -0.842425
v -0.0382455 0.0358288 0.0024921
vn 0.791278 -0.274549 -0.546354
v -0.0384982 0.0362459 0.00219477
vn 0.330034 -0.0865643 -0.939991
v -0.0391641 0.0361129 0.00214354
vn -0.0169963 -0.192224 -0.981204
v -0.0393814 0.0356284 0.00236296
vn -0.0542665 -0.587688 -0.807265
v -0.0397936 0.0359791 0.00225238
vn -0.22617 -0.238727 -0.944382
v -0.0398488 0.0357435 0.0023734
vn -0.408224 -0.543506 -0.733454
v -0.0402264 0.0361897 0.00241737
vn -0.578991 -0.27532 -0.767443
v -0.037929 0.0359195 0.00314379
vn 0.910503 -0.240263 -0.336538
v -0.0406084 0.0359122 0.00283203
vn -0.617229 -0.321834 -0.717949
v -0.0407341 0.0356035 0.00317144
vn -0.793327 -0.448971 -0.411166
v -0.0408909 0.0361175 0.00314162
vn -0.928129 -0.11166 -0.355117
v -0.0377531 0.0358591 0.00377512
vn 0.880405 -0.451386 -0.145387
v -0.0376932 0.0361215 0.00389073
vn 0.975245 -0.0196045 0.220256
v -0.0377214 0.0362604 0.00355818
vn 0.9521 -0.0196537 -0.305154
v -0.0409866 0.0362378 0.00369036
vn -0.998436 -0.0413741 0.0376028
v -0.0377812 0.0359385 0.00406592
vn 0.850644 -0.208182 0.482768
v -0.0380901 0.036082 0.00456903
vn 0.794896 -0.0911243 0.599864
v -0.0407069 0.0356625 0.0045899
vn -0.80097 -0.356419 0.481054
v -0.0408255 0.0359451 0.00438273
vn -0.959668 -0.0472218 0.277142
v -0.038562 0.0357799 0.00500355
vn 0.584993 -0.257377 0.769117
v -0.0391248 0.035795 0.00535271
vn 0.313703 -0.494252 0.810743
v -0.0388653 0.0362674 0.00534887
vn 0.563594 -0.0253222 0.825664
v -0.0396942 0.0357236 0.00535038
vn -0.152386 -0.494288 0.855837
v -0.0401583 0.0359099 0.00518932
vn -0.602486 -0.172021 0.779371
v -0.0406347 0.0359011 0.00475835
vn -0.728577 -0.107639 0.676453
v -0.0393053 0.0360149 0.00547944
vn 0.0854066 -0.121607 0.988897
v -0.039767 0.0361703 0.00543832
vn -0.304284 0.0689572 0.950082
v -0.0382145 0.0366258 0.00245799
vn 0.855488 0.112253 -0.50551
v -0.0385281 0.0368103 0.00222257
vn 0.3159 0.250608 -0.915097
v -0.0391578 0.0367419 0.00213168
vn -0.0160089 0.184264 -0.982746
v -0.0398898 0.0365852 0.00220652
vn -0.220925 0.0379851 -0.974551
v -0.0402474 0.0367389 0.00235239
vn -0.555061 0.17554 -0.813076
v -0.0379239 0.0367957 0.00316822
vn 0.904452 0.229612 -0.359506
v -0.0405959 0.0367598 0.00272622
vn -0.735373 0.211442 -0.643831
v -0.0408802 0.0367523 0.00326465
vn -0.942821 0.298379 -0.148518
v -0.0377049 0.0366582 0.00382344
vn 0.987092 0.101275 0.124068
v -0.0377654 0.03685 0.00362657
vn 0.897717 0.337084 -0.283687
v -0.0408695 0.0366479 0.00399823
vn -0.932699 0.271773 0.237092
v -0.0378601 0.0367109 0.00413055
vn 0.838606 0.286222 0.463484
v -0.0381827 0.0368366 0.00459115
vn 0.779879 0.255508 0.571406
v -0.0406021 0.0363834 0.00467187
vn -0.769628 0.242246 0.590754
v -0.0407325 0.0368051 0.00419706
vn -0.73891 0.510007 0.440346
v -0.0403631 0.0368409 0.00462454
vn -0.641333 0.550969 0.533971
v -0.0385062 0.0367421 0.00493637
vn 0.645061 0.246356 0.723329
v -0.0389488 0.0368104 0.00530327
vn 0.467373 0.428095 0.773497
v -0.040054 0.036432 0.00520711
vn -0.613261 0.291992 0.733929
v -0.0400061 0.0368295 0.00499903
vn -0.529978 0.537594 0.655832
v -0.039644 0.0367312 0.0052956
vn -0.352064 0.489586 0.797719
v -0.0392048 0.0366008 0.00544048
vn 0.0220022 0.22839 0.973321
v -0.0384378 0.037151 0.00244566
vn 0.515895 0.53188 -0.671532
v -0.038975 0.0372025 0.00233523
vn 0.0383193 0.58494 -0.810171
v -0.0398737 0.0370826 0.00236931
vn -0.277513 0.52286 -0.80598
v -0.0382756 0.0374208 0.0029396
vn 0.79133 0.510328 -0.336693
v -0.0386281 0.0375916 0.00281268
vn 0.216394 0.81285 -0.540786
v -0.0394415 0.0375841 0.00270591
vn -0.0875914 0.772649 -0.628761
v -0.0401368 0.0374348 0.00282347
vn -0.478947 0.659548 -0.579315
v -0.0406517 0.0371265 0.00307316
vn -0.763552 0.597927 -0.243867
v -0.0402736 0.037528 0.00331365
vn -0.599044 0.798426 -0.0605194
v -0.0377683 0.0369093 0.00382272
vn 0.798528 0.524807 0.294841
v -0.0381308 0.0373985 0.00365919
vn 0.783313 0.620051 0.0442326
v -0.0406191 0.0371081 0.00380404
vn -0.739054 0.630575 0.237013
v -0.0401938 0.037535 0.00388683
vn -0.627184 0.727013 0.279449
v -0.0383959 0.0371645 0.00462219
vn 0.569104 0.50838 0.646275
v -0.0383485 0.0374132 0.00426953
vn 0.720712 0.588818 0.365879
v -0.0387438 0.0375169 0.00455016
vn 0.384711 0.711768 0.587694
v -0.0399747 0.0372283 0.00461839
vn -0.549415 0.624232 0.555407
v -0.0398559 0.0376106 0.00426956
vn -0.414447 0.833176 0.366132
v -0.0394922 0.0375357 0.00468146
vn -0.304817 0.724321 0.618422
v -0.03929 0.0370543 0.0052011
vn -0.22222 0.60651 0.76339
v -0.0390862 0.0374003 0.00487018
vn 0.313485 0.677368 0.665507
v -0.038529 0.0377582 0.00333824
vn 0.429852 0.893818 -0.127734
v -0.0391659 0.0378182 0.00317089
vn -0.0251706 0.970074 -0.241501
v -0.0398362 0.0376947 0.00305114
vn -0.268061 0.930112 -0.251069
v -0.0386236 0.0377551 0.00399416
vn 0.412852 0.874338 0.255122
v -0.0390142 0.0378843 0.00372756
vn -0.00217976 0.997745 0.0670858
v -0.0398219 0.0377441 0.0037086
vn -0.257432 0.964606 0.0571263
v -0.0392795 0.0377146 0.00440302
vn -0.0269899 0.942753 0.332398
v -0.00497302 0.0581249 0.00811155
vn 0.114198 -0.954614 -0.275085
v -0.00444971 0.0583386 0.00796886
vn 0.433547 -0.761372 -0.482027
v -0.00489098 0.0583136 0.00770644
vn 0.149169 -0.773906 -0.615482
v -0.00550722 0.0584169 0.00761409
vn -0.142794 -0.714838 -0.684556
v -0.00584325 0.0581272 0.00811571
vn -0.13133 -0.936927 -0.323915
v -0.00622915 0.0583807 0.00786347
vn -0.324556 -0.630498 -0.705078
v -0.00638461 0.0582777 0.0081639
vn -0.525561 -0.814268 -0.246481
v -0.00649724 0.0585405 0.00798183
vn -0.829375 -0.297665 -0.472793
v -0.0042788 0.0582367 0.0086443
vn 0.402861 -0.913877 -0.0503096
v -0.00394667 0.0585676 0.0088279
vn 0.907356 -0.407282 0.10405
v -0.00405597 0.0584436 0.00832345
vn 0.746359 -0.604089 -0.27933
v -0.00501611 0.0580011 0.0088924
vn 0.17994 -0.983222 0.0299255
v -0.00559853 0.057973 0.00880555
vn -0.0820612 -0.996397 -0.0214046
v -0.00630537 0.0581377 0.00879476
vn -0.432997 -0.900827 -0.0320104
v -0.0066187 0.0584897 0.00852832
vn -0.924997 -0.3685 -0.0926693
v -0.00419086 0.0583517 0.00913816
vn 0.59898 -0.760594 0.25044
v -0.00471291 0.0581703 0.00935538
vn 0.260501 -0.919087 0.295666
v -0.00452671 0.0583067 0.00950421
vn 0.458375 -0.687511 0.563223
v -0.00544485 0.0580915 0.0094442
vn 0.0236267 -0.90293 0.429137
v -0.00620129 0.058176 0.00947788
vn -0.262379 -0.910064 0.320844
v -0.00655673 0.0584108 0.00932239
vn -0.898291 -0.414545 0.145691
v -0.00489837 0.0584362 0.0098172
vn 0.231759 -0.702827 0.672548
v -0.00591266 0.0584611 0.00988854
vn -0.213255 -0.602945 0.768752
v -0.0064265 0.0584604 0.0096525
vn -0.635896 -0.293614 0.713742
v -0.00491525 0.0587224 0.00737434
vn 0.230256 -0.536144 -0.812116
v -0.00449557 0.0591213 0.00733878
vn 0.52228 -0.203701 -0.828088
v -0.00492589 0.059315 0.00713187
vn 0.22121 -0.104347 -0.969628
v -0.00548815 0.059095 0.00712879
vn -0.0539263 -0.237597 -0.969866
v -0.00567043 0.0588848 0.00725546
vn -0.266963 -0.52089 -0.810805
v -0.00596061 0.059363 0.00725458
vn -0.554797 -0.0849711 -0.827635
v -0.00418285 0.0587547 0.0077907
vn 0.624763 -0.45768 -0.632614
v -0.00389486 0.0589337 0.00815684
vn 0.929465 -0.209301 -0.303789
v -0.0040966 0.0593313 0.00766928
vn 0.77672 -0.0336399 -0.628947
v -0.00625344 0.0589183 0.00759831
vn -0.615696 -0.263517 -0.742615
v -0.00664807 0.0591775 0.00805799
vn -0.915666 -0.042309 -0.399706
v -0.00375675 0.0592121 0.0086462
vn 0.992944 -0.116779 -0.0206159
v -0.00676646 0.059149 0.00876224
vn -0.998882 -0.0472588 -0.000656179
v -0.00413284 0.0586684 0.00949135
vn 0.705512 -0.47357 0.527243
v -0.00389242 0.0592164 0.00939309
vn 0.922551 -0.115921 0.368051
v -0.0066465 0.0591055 0.00946541
vn -0.926328 -0.0270038 0.37575
v -0.00422746 0.0590282 0.00984838
vn 0.675316 -0.300904 0.673353
v -0.00482979 0.0588683 0.0102013
vn 0.377332 -0.506211 0.775481
v -0.0045397 0.0593777 0.0101893
vn 0.554329 -0.0392117 0.831373
v -0.00541121 0.0587887 0.0102138
vn -0.0426017 -0.538007 0.841863
v -0.00583243 0.0589999 0.0101873
vn -0.445041 -0.232585 0.864779
v -0.00626306 0.0592444 0.00989778
vn -0.604191 0.0504285 0.795242
v -0.00499429 0.0590786 0.0103219
vn 0.117113 -0.130831 0.984463
v -0.00549316 0.0592596 0.0103133
vn -0.122092 -0.0261096 0.992175
v -0.0045721 0.0598712 0.00734189
vn 0.52515 0.288307 -0.800685
v -0.00499516 0.0599183 0.0071434
vn 0.103937 0.195915 -0.975097
v -0.00555837 0.0596491 0.00712385
vn -0.129635 0.118099 -0.984504
v -0.00594583 0.0598066 0.00727054
vn -0.479949 0.322217 -0.815981
v -0.00388106 0.0597217 0.00812649
vn 0.95437 0.13006 -0.268816
v -0.00411585 0.0599399 0.00773776
vn 0.72223 0.271176 -0.636276
v -0.00630622 0.0598562 0.00764549
vn -0.71217 0.252975 -0.654842
v -0.0066239 0.0598514 0.00818518
vn -0.94795 0.233707 -0.216268
v -0.00376848 0.0597083 0.00888146
vn 0.988621 0.145641 0.0376411
v -0.00667945 0.0597734 0.00899076
vn -0.960309 0.262138 0.0953443
v -0.00391642 0.0600263 0.00935876
vn 0.937466 0.198866 0.285675
v -0.0065508 0.0597236 0.0095349
vn -0.832801 0.223088 0.50663
v -0.0041842 0.0598684 0.00979354
vn 0.694435 0.233191 0.680722
v -0.00462808 0.0599291 0.0101612
vn 0.494257 0.377353 0.783144
v -0.00575914 0.0594298 0.0102235
vn -0.473808 0.213618 0.854326
v -0.00559583 0.0600195 0.0100612
vn -0.355223 0.450988 0.818796
v -0.00535347 0.0597928 0.0102641
vn -0.186484 0.274467 0.943341
v -0.00624215 0.0600683 0.00968569
vn -0.538155 0.393427 0.745389
v -0.00490267 0.0596961 0.0103014
vn 0.118334 0.106687 0.987226
v -0.00493945 0.0601484 0.00724016
vn 0.199369 0.59454 -0.778957
v -0.00553214 0.0601618 0.00731801
vn -0.268563 0.557185 -0.78576
v -0.0040731 0.0603521 0.00807538
vn 0.835157 0.403764 -0.373481
v -0.00441384 0.0605113 0.00786234
vn 0.438095 0.622832 -0.648193
v -0.00503055 0.0605769 0.00763703
vn 0.139502 0.725585 -0.673844
v -0.00578757 0.0605522 0.00775793
vn -0.393427 0.652556 -0.6476
v -0.00636745 0.0602293 0.00798177
vn -0.706768 0.58544 -0.397164
v -0.00594161 0.0606804 0.00818368
vn -0.555739 0.812884 -0.174283
v -0.00399439 0.0604589 0.00865169
vn 0.916794 0.396203 -0.0501169
v -0.00422706 0.0606989 0.00831742
vn 0.552703 0.787563 -0.272514
v -0.00644656 0.0602644 0.00852515
vn -0.79037 0.612364 -0.018035
v -0.00602778 0.0606567 0.00894894
vn -0.590173 0.804592 0.0657848
v -0.0040941 0.0605529 0.00913353
vn 0.760335 0.605341 0.235486
v -0.00404189 0.0602151 0.00950642
vn 0.677825 0.462152 0.571812
v -0.00441914 0.060615 0.00947889
vn 0.459239 0.67438 0.578197
v -0.00642521 0.0601686 0.00930613
vn -0.787183 0.574269 0.224852
v -0.00597834 0.0605665 0.00947989
vn -0.56839 0.71566 0.405911
v -0.00497445 0.0600465 0.0101995
vn -0.0252673 0.535551 0.844125
v -0.00484651 0.0604643 0.00985004
vn 0.185157 0.630157 0.754069
v -0.00559716 0.0606073 0.00967801
vn -0.218788 0.652026 0.725943
v -0.00480164 0.0608733 0.00819927
vn 0.173085 0.940359 -0.292861
v -0.0054709 0.0608252 0.00798633
vn -0.13166 0.907621 -0.39861
v -0.00434723 0.0608177 0.00883682
vn 0.411406 0.907277 0.0871464
v -0.00499847 0.060984 0.00887551
vn 0.0482343 0.997224 0.0567337
v -0.0055137 0.0609164 0.00852465
vn -0.242442 0.968602 -0.0550593
v -0.00490763 0.0608322 0.00944968
vn 0.124958 0.890331 0.437832
v -0.00557361 0.0608311 0.00931065
vn -0.255904 0.937249 0.236806
f 3//3 2//2 1//1
f 5//5 4//4 1//1
f 1//1 4//4 3//3
f 7//7 6//6 5//5
f 5//5 6//6 4//4
f 7//7 8//8 6//6
f 1//1 2//2 9//9
f 9//9 2//2 10//10
f 1//1 11//11 5//5
f 1//1 9//9 11//11
f 5//5 12//12 7//7
f 5//5 11//11 12//12
f 8//8 7//7 13//13
f 7//7 14//14 13//13
f 7//7 12//12 14//14
f 14//14 15//15 13//13
f 9//9 10//10 16//16
f 16//16 10//10 17//17
f 9//9 18//18 11//11
f 9//9 16//16 18//18
f 11//11 19//19 12//12
f 11//11 18//18 19//19
f 12//12 20//20 14//14
f 12//12 19//19 20//20
f 15//15 14//14 21//21
f 21//21 14//14 20//20
f 17//17 22//22 16//16
f 24//24 23//23 22//22
f 23//23 16//16 22//22
f 23//23 18//18 16//16
f 18//18 25//25 19//19
f 18//18 23//23 25//25
f 27//27 20//20 26//26
f 20//20 25//25 26//26
f 20//20 19//19 25//25
f 20//20 27//27 21//21
f 24//24 28//28 23//23
f 23//23 28//28 25//25
f 25//25 28//28 29//29
f 25//25 29//29 26//26
f 32//32 31//31 30//30
f 30//30 33//33 32//32
f 35//35 34//34 3//3
f 3//3 34//34 2//2
f 4//4 30//30 31//31
f 35//35 4//4 31//31
f 3//3 4//4 35//35
f 36//36 33//33 30//30
f 4//4 36//36 30//30
f 6//6 36//36 4//4
f 38//38 37//37 8//8
f 37//37 6//6 8//8
f 37//37 36//36 6//6
f 38//38 39//39 37//37
f 34//34 10//10 2//2
f 40//40 10//10 34//34
f 13//13 38//38 8//8
f 13//13 15//15 38//38
f 15//15 39//39 38//38
f 15//15 41//41 39//39
f 40//40 17//17 10//10
f 42//42 17//17 40//40
f 21//21 41//41 15//15
f 21//21 43//43 41//41
f 22//22 17//17 44//44
f 17//17 45//45 44//44
f 17//17 42//42 45//45
f 44//44 24//24 22//22
f 47//47 46//46 27//27
f 47//47 27//27 26//26
f 21//21 27//27 43//43
f 43//43 27//27 46//46
f 45//45 48//48 44//44
f 44//44 48//48 24//24
f 48//48 28//28 24//24
f 48//48 49//49 28//28
f 28//28 50//50 29//29
f 49//49 50//50 28//28
f 26//26 29//29 47//47
f 47//47 29//29 50//50
f 51//51 31//31 32//32
f 33//33 51//51 32//32
f 53//53 52//52 35//35
f 35//35 52//52 34//34
f 35//35 31//31 51//51
f 54//54 35//35 51//51
f 53//53 35//35 54//54
f 54//54 51//51 33//33
f 36//36 54//54 33//33
f 55//55 54//54 36//36
f 57//57 55//55 56//56
f 55//55 37//37 56//56
f 55//55 36//36 37//37
f 39//39 56//56 37//37
f 52//52 40//40 34//34
f 58//58 40//40 52//52
f 59//59 57//57 56//56
f 56//56 39//39 59//59
f 39//39 60//60 59//59
f 39//39 41//41 60//60
f 58//58 42//42 40//40
f 61//61 42//42 58//58
f 43//43 60//60 41//41
f 43//43 62//62 60//60
f 64//64 45//45 63//63
f 45//45 61//61 63//63
f 45//45 42//42 61//61
f 65//65 64//64 63//63
f 67//67 66//66 46//46
f 67//67 46//46 47//47
f 43//43 46//46 62//62
f 62//62 46//46 66//66
f 64//64 48//48 45//45
f 65//65 68//68 64//64
f 68//68 48//48 64//64
f 68//68 49//49 48//48
f 49//49 69//69 50//50
f 68//68 69//69 49//49
f 47//47 50//50 67//67
f 67//67 50//50 69//69
f 70//70 52//52 53//53
f 54//54 71//71 53//53
f 53//53 71//71 70//70
f 55//55 72//72 54//54
f 54//54 72//72 71//71
f 57//57 72//72 55//55
f 73//73 58//58 70//70
f 70//70 58//58 52//52
f 71//71 75//75 74//74
f 73//73 71//71 74//74
f 70//70 71//71 73//73
f 75//75 71//71 72//72
f 75//75 72//72 76//76
f 78//78 76//76 77//77
f 77//77 76//76 59//59
f 76//76 72//72 59//59
f 72//72 57//57 59//59
f 60//60 77//77 59//59
f 79//79 61//61 73//73
f 73//73 61//61 58//58
f 73//73 74//74 80//80
f 73//73 80//80 79//79
f 83//83 82//82 81//81
f 81//81 82//82 78//78
f 77//77 81//81 78//78
f 84//84 81//81 77//77
f 62//62 84//84 60//60
f 60//60 84//84 77//77
f 79//79 63//63 61//61
f 86//86 85//85 65//65
f 86//86 65//65 63//63
f 80//80 86//86 63//63
f 79//79 80//80 63//63
f 85//85 86//86 83//83
f 81//81 85//85 83//83
f 87//87 85//85 81//81
f 67//67 87//87 66//66
f 87//87 84//84 66//66
f 87//87 81//81 84//84
f 66//66 84//84 62//62
f 85//85 68//68 65//65
f 68//68 85//85 69//69
f 69//69 85//85 87//87
f 69//69 87//87 67//67
f 88//88 74//74 75//75
f 76//76 89//89 75//75
f 75//75 89//89 88//88
f 78//78 89//89 76//76
f 90//90 80//80 88//88
f 88//88 80//80 74//74
f 83//83 90//90 82//82
f 90//90 89//89 82//82
f 90//90 88//88 89//89
f 82//82 89//89 78//78
f 90//90 86//86 80//80
f 86//86 90//90 83//83
f 93//93 92//92 91//91
f 95//95 94//94 91//91
f 91//91 94//94 93//93
f 97//97 96//96 95//95
f 95//95 96//96 94//94
f 97//97 98//98 96//96
f 91//91 92//92 99//99
f 99//99 92//92 100//100
f 91//91 101//101 95//95
f 91//91 99//99 101//101
f 95//95 102//102 97//97
f 95//95 101//101 102//102
f 98//98 97//97 103//103
f 103//103 97//97 102//102
f 99//99 100//100 104//104
f 104//104 100//100 105//105
f 99//99 106//106 101//101
f 99//99 104//104 106//106
f 101//101 107//107 102//102
f 101//101 106//106 107//107
f 103//103 102//102 108//108
f 108//108 102//102 107//107
f 105//105 109//109 104//104
f 104//104 109//109 106//106
f 106//106 109//109 110//110
f 106//106 110//110 107//107
f 107//107 110//110 111//111
f 107//107 111//111 108//108
f 114//114 113//113 112//112
f 112//112 115//115 114//114
f 117//117 116//116 93//93
f 93//93 116//116 92//92
f 94//94 112//112 113//113
f 117//117 94//94 113//113
f 93//93 94//94 117//117
f 118//118 115//115 112//112
f 94//94 118//118 112//112
f 96//96 118//118 94//94
f 96//96 98//98 118//118
f 118//118 98//98 119//119
f 122//122 121//121 120//120
f 116//116 122//122 120//120
f 100//100 116//116 120//120
f 92//92 116//116 100//100
f 103//103 124//124 123//123
f 119//119 103//103 123//123
f 98//98 103//103 119//119
f 124//124 125//125 123//123
f 120//120 121//121 126//126
f 126//126 121//121 127//127
f 126//126 105//105 100//100
f 126//126 100//100 120//120
f 108//108 128//128 124//124
f 108//108 124//124 103//103
f 125//125 124//124 129//129
f 129//129 124//124 128//128
f 127//127 130//130 126//126
f 130//130 132//132 131//131
f 130//130 131//131 109//109
f 126//126 130//130 109//109
f 105//105 126//126 109//109
f 133//133 110//110 109//109
f 133//133 109//109 131//131
f 134//134 111//111 110//110
f 134//134 110//110 133//133
f 134//134 135//135 111//111
f 111//111 135//135 108//108
f 135//135 136//136 108//108
f 136//136 128//128 108//108
f 128//128 136//136 129//129
f 132//132 137//137 131//131
f 131//131 137//137 133//133
f 133//133 137//137 138//138
f 133//133 138//138 134//134
f 134//134 138//138 139//139
f 134//134 139//139 135//135
f 141//141 140//140 114//114
f 114//114 140//140 113//113
f 114//114 115//115 141//141
f 141//141 115//115 142//142
f 145//145 144//144 143//143
f 116//116 117//117 143//143
f 117//117 145//145 143//143
f 117//117 146//146 145//145
f 117//117 113//113 140//140
f 117//117 140//140 146//146
f 147//147 142//142 115//115
f 147//147 115//115 118//118
f 118//118 119//119 147//147
f 147//147 119//119 148//148
f 143//143 144//144 122//122
f 144//144 121//121 122//122
f 144//144 149//149 121//121
f 143//143 122//122 116//116
f 150//150 148//148 119//119
f 150//150 119//119 123//123
f 123//123 125//125 150//150
f 150//150 125//125 151//151
f 149//149 127//127 121//121
f 152//152 127//127 149//149
f 155//155 154//154 153//153
f 154//154 151//151 153//153
f 151//151 129//129 153//153
f 151//151 125//125 129//129
f 152//152 156//156 127//127
f 127//127 156//156 130//130
f 132//132 130//130 156//156
f 132//132 156//156 157//157
f 155//155 153//153 136//136
f 135//135 155//155 136//136
f 158//158 155//155 135//135
f 136//136 153//153 129//129
f 157//157 159//159 132//132
f 132//132 159//159 137//137
f 137//137 160//160 138//138
f 159//159 160//160 137//137
f 138//138 161//161 139//139
f 160//160 161//161 138//138
f 135//135 139//139 158//158
f 158//158 139//139 161//161
f 162//162 140//140 141//141
f 142//142 162//162 141//141
f 163//163 144//144 145//145
f 163//163 145//145 164//164
f 145//145 165//165 164//164
f 145//145 146//146 165//165
f 146//146 140//140 162//162
f 166//166 146//146 162//162
f 165//165 146//146 166//166
f 166//166 162//162 142//142
f 147//147 166//166 142//142
f 167//167 166//166 147//147
f 147//147 148//148 167//167
f 167//167 148//148 168//168
f 169//169 149//149 163//163
f 163//163 149//149 144//144
f 163//163 164//164 170//170
f 163//163 170//170 169//169
f 148//148 150//150 171//171
f 172//172 148//148 171//171
f 168//168 148//148 172//172
f 151//151 171//171 150//150
f 173//173 152//152 169//169
f 169//169 152//152 149//149
f 169//169 170//170 174//174
f 169//169 174//174 173//173
f 172//172 171//171 154//154
f 155//155 172//172 154//154
f 175//175 172//172 155//155
f 154//154 171//171 151//151
f 173//173 156//156 152//152
f 177//177 176//176 157//157
f 177//177 157//157 156//156
f 174//174 177//177 156//156
f 173//173 174//174 156//156
f 179//179 178//178 176//176
f 179//179 176//176 177//177
f 181//181 180//180 178//178
f 181//181 178//178 179//179
f 181//181 175//175 180//180
f 175//175 158//158 180//180
f 175//175 155//155 158//158
f 176//176 159//159 157//157
f 159//159 176//176 160//160
f 160//160 176//176 178//178
f 160//160 178//178 161//161
f 161//161 178//178 180//180
f 161//161 180//180 158//158
f 182//182 164//164 165//165
f 166//166 183//183 165//165
f 165//165 183//183 182//182
f 167//167 184//184 166//166
f 166//166 184//184 183//183
f 168//168 184//184 167//167
f 185//185 170//170 182//182
f 182//182 170//170 164//164
f 186//186 182//182 183//183
f 185//185 182//182 186//186
f 187//187 183//183 184//184
f 186//186 183//183 187//187
f 172//172 187//187 168//168
f 168//168 187//187 184//184
f 188//188 174//174 185//185
f 185//185 174//174 170//170
f 189//189 185//185 186//186
f 188//188 185//185 189//189
f 190//190 186//186 187//187
f 189//189 186//186 190//190
f 175//175 190//190 172//172
f 172//172 190//190 187//187
f 188//188 177//177 174//174
f 177//177 188//188 179//179
f 179//179 188//188 189//189
f 179//179 189//189 181//181
f 181//181 189//189 190//190
f 181//181 190//190 175//175
f 193//193 192//192 191//191
f 195//195 194//194 191//191
f 191//191 194//194 193//193
f 197//197 196//196 195//195
f 195//195 196//196 194//194
f 197//197 198//198 196//196
f 191//191 192//192 199//199
f 199//199 192//192 200//200
f 191//191 201//201 195//195
f 191//191 199//199 201//201
f 195//195 202//202 197//197
f 195//195 201//201 202//202
f 198//198 197//197 203//203
f 197//197 204//204 203//203
f 197//197 202//202 204//204
f 204//204 205//205 203//203
f 199//199 200//200 206//206
f 206//206 200//200 207//207
f 199//199 208//208 201//201
f 199//199 206//206 208//208
f 201//201 209//209 202//202
f 201//201 208//208 209//209
f 211//211 204//204 210//210
f 204//204 209//209 210//210
f 204//204 202//202 209//209
f 204//204 211//211 205//205
f 207//207 212//212 206//206
f 206//206 212//212 208//208
f 208//208 212//212 213//213
f 208//208 213//213 209//209
f 209//209 213//213 214//214
f 209//209 214//214 210//210
f 217//217 216//216 215//215
f 219//219 218//218 215//215
f 215//215 218//218 217//217
f 221//221 220//220 219//219
f 219//219 220//220 218//218
f 221//221 222//222 220//220
f 215//215 216//216 193//193
f 216//216 192//192 193//193
f 216//216 223//223 192//192
f 215//215 193//193 194//194
f 215//215 194//194 219//219
f 219//219 194//194 196//196
f 219//219 196//196 221//221
f 225//225 224//224 198//198
f 198//198 224//224 196//196
f 224//224 222//222 196//196
f 222//222 221//221 196//196
f 225//225 226//226 224//224
f 229//229 228//228 227//227
f 223//223 229//229 227//227
f 200//200 223//223 227//227
f 192//192 223//223 200//200
f 203//203 225//225 198//198
f 203//203 205//205 225//225
f 205//205 226//226 225//225
f 205//205 230//230 226//226
f 228//228 231//231 227//227
f 200//200 227//227 231//231
f 232//232 200//200 231//231
f 207//207 200//200 232//232
f 210//210 233//233 211//211
f 233//233 234//234 211//211
f 234//234 205//205 211//211
f 234//234 230//230 205//205
f 232//232 235//235 207//207
f 207//207 235//235 212//212
f 235//235 237//237 236//236
f 213//213 235//235 236//236
f 212//212 235//235 213//213
f 238//238 214//214 213//213
f 238//238 213//213 236//236
f 238//238 239//239 214//214
f 214//214 239//239 210//210
f 239//239 240//240 210//210
f 240//240 233//233 210//210
f 233//233 240//240 234//234
f 237//237 241//241 236//236
f 236//236 241//241 238//238
f 238//238 241//241 242//242
f 238//238 242//242 239//239
f 244//244 243//243 217//217
f 217//217 243//243 216//216
f 245//245 217//217 218//218
f 245//245 244//244 217//217
f 246//246 218//218 220//220
f 246//246 245//245 218//218
f 220//220 222//222 246//246
f 246//246 222//222 247//247
f 243//243 223//223 216//216
f 248//248 223//223 243//243
f 249//249 247//247 222//222
f 249//249 222//222 224//224
f 224//224 226//226 249//249
f 249//249 226//226 250//250
f 252//252 251//251 229//229
f 229//229 251//251 228//228
f 229//229 223//223 248//248
f 229//229 248//248 252//252
f 230//230 250//250 226//226
f 230//230 253//253 250//250
f 251//251 254//254 228//228
f 228//228 254//254 231//231
f 232//232 231//231 254//254
f 232//232 254//254 255//255
f 258//258 257//257 256//256
f 257//257 253//253 256//256
f 253//253 234//234 256//256
f 253//253 230//230 234//234
f 255//255 259//259 232//232
f 232//232 259//259 235//235
f 237//237 235//235 259//259
f 237//237 259//259 260//260
f 263//263 262//262 261//261
f 261//261 262//262 258//258
f 261//261 258//258 256//256
f 239//239 261//261 256//256
f 240//240 239//239 256//256
f 240//240 256//256 234//234
f 260//260 264//264 237//237
f 237//237 264//264 241//241
f 261//261 242//242 263//263
f 242//242 264//264 263//263
f 242//242 241//241 264//264
f 242//242 261//261 239//239
f 265//265 243//243 244//244
f 245//245 266//266 244//244
f 244//244 266//266 265//265
f 246//246 267//267 245//245
f 245//245 267//267 266//266
f 247//247 267//267 246//246
f 269//269 268//268 265//265
f 268//268 243//243 265//265
f 268//268 248//248 243//243
f 269//269 265//265 266//266
f 269//269 266//266 270//270
f 270//270 266//266 267//267
f 270//270 267//267 271//271
f 273//273 271//271 272//272
f 272//272 271//271 249//249
f 271//271 267//267 249//249
f 267//267 247//247 249//249
f 250//250 272//272 249//249
f 274//274 251//251 252//252
f 275//275 274//274 252//252
f 248//248 275//275 252//252
f 268//268 275//275 248//248
f 273//273 272//272 276//276
f 273//273 276//276 277//277
f 253//253 276//276 250//250
f 250//250 276//276 272//272
f 274//274 254//254 251//251
f 279//279 278//278 255//255
f 279//279 255//255 254//254
f 275//275 279//279 254//254
f 274//274 275//275 254//254
f 280//280 278//278 279//279
f 283//283 282//282 281//281
f 281//281 282//282 277//277
f 281//281 277//277 276//276
f 258//258 281//281 276//276
f 257//257 258//258 276//276
f 257//257 276//276 253//253
f 278//278 259//259 255//255
f 285//285 284//284 260//260
f 285//285 260//260 259//259
f 280//280 285//285 259//259
f 278//278 280//280 259//259
f 284//284 285//285 283//283
f 284//284 283//283 281//281
f 263//263 284//284 281//281
f 262//262 263//263 281//281
f 262//262 281//281 258//258
f 284//284 264//264 260//260
f 264//264 284//284 263//263
f 286//286 268//268 269//269
f 270//270 287//287 269//269
f 269//269 287//287 286//286
f 271//271 288//288 270//270
f 270//270 288//288 287//287
f 273//273 288//288 271//271
f 289//289 275//275 286//286
f 286//286 275//275 268//268
f 290//290 286//286 287//287
f 289//289 286//286 290//290
f 291//291 287//287 288//288
f 290//290 287//287 291//291
f 277//277 291//291 273//273
f 273//273 291//291 288//288
f 289//289 279//279 275//275
f 279//279 289//289 280//280
f 289//289 292//292 280//280
f 289//289 290//290 292//292
f 283//283 292//292 282//282
f 292//292 291//291 282//282
f 292//292 290//290 291//291
f 282//282 291//291 277//277
f 292//292 285//285 280//280
f 285//285 292//292 283//283
f 295//295 294//294 293//293
f 297//297 296//296 293//293
f 293//293 296//296 295//295
f 299//299 298//298 297//297
f 297//297 298//298 296//296
f 299//299 300//300 298//298
f 303//303 302//302 301//301
f 303//303 301//301 294//294
f 301//301 293//293 294//294
f 301//301 304//304 293//293
f 293//293 305//305 297//297
f 293//293 304//304 305//305
f 297//297 306//306 299//299
f 297//297 305//305 306//306
f 300//300 299//299 307//307
f 307//307 299//299 306//306
f 302//302 308//308 301//301
f 310//310 309//309 308//308
f 309//309 301//301 308//308
f 309//309 304//304 301//301
f 304//304 311//311 305//305
f 304//304 309//309 311//311
f 305//305 312//312 306//306
f 305//305 311//311 312//312
f 307//307 306//306 313//313
f 313//313 306//306 312//312
f 310//310 314//314 309//309
f 309//309 314//314 311//311
f 311//311 314//314 315//315
f 311//311 315//315 312//312
f 312//312 315//315 316//316
f 312//312 316//316 313//313
f 319//319 318//318 317//317
f 321//321 320//320 317//317
f 317//317 320//320 319//319
f 321//321 322//322 320//320
f 325//325 324//324 323//323
f 325//325 323//323 318//318
f 318//318 323//323 317//317
f 323//323 294//294 317//317
f 294//294 295//295 317//317
f 317//317 295//295 296//296
f 317//317 296//296 321//321
f 326//326 322//322 321//321
f 296//296 326//326 321//321
f 298//298 326//326 296//296
f 298//298 300//300 326//326
f 326//326 300//300 327//327
f 323//323 324//324 303//303
f 324//324 302//302 303//303
f 324//324 328//328 302//302
f 323//323 303//303 294//294
f 307//307 327//327 300//300
f 307//307 329//329 327//327
f 308//308 302//302 330//330
f 302//302 331//331 330//330
f 302//302 328//328 331//331
f 330//330 310//310 308//308
f 313//313 329//329 307//307
f 313//313 332//332 329//329
f 331//331 333//333 330//330
f 333//333 335//335 334//334
f 333//333 334//334 314//314
f 330//330 333//333 314//314
f 310//310 330//330 314//314
f 336//336 315//315 314//314
f 336//336 314//314 334//334
f 315//315 336//336 337//337
f 338//338 315//315 337//337
f 316//316 315//315 338//338
f 313//313 316//316 332//332
f 332//332 316//316 338//338
f 335//335 339//339 334//334
f 334//334 339//339 336//336
f 336//336 339//339 340//340
f 336//336 340//340 337//337
f 342//342 341//341 319//319
f 319//319 341//341 318//318
f 343//343 319//319 320//320
f 343//343 342//342 319//319
f 320//320 322//322 343//343
f 343//343 322//322 344//344
f 346//346 345//345 325//325
f 325//325 345//345 324//324
f 325//325 318//318 341//341
f 325//325 341//341 346//346
f 347//347 344//344 322//322
f 347//347 322//322 326//326
f 326//326 327//327 347//347
f 347//347 327//327 348//348
f 345//345 328//328 324//324
f 349//349 328//328 345//345
f 329//329 348//348 327//327
f 329//329 350//350 348//348
f 349//349 331//331 328//328
f 351//351 331//331 349//349
f 332//332 350//350 329//329
f 332//332 352//352 350//350
f 351//351 353//353 331//331
f 331//331 353//353 333//333
f 335//335 333//333 353//353
f 335//335 353//353 354//354
f 357//357 356//356 355//355
f 338//338 337//337 355//355
f 356//356 338//338 355//355
f 358//358 338//338 356//356
f 332//332 338//338 352//352
f 352//352 338//338 358//358
f 354//354 359//359 335//335
f 335//335 359//359 339//339
f 355//355 340//340 357//357
f 340//340 359//359 357//357
f 340//340 339//339 359//359
f 340//340 355//355 337//337
f 360//360 341//341 342//342
f 343//343 361//361 342//342
f 342//342 361//361 360//360
f 344//344 361//361 343//343
f 362//362 345//345 346//346
f 363//363 362//362 346//346
f 363//363 346//346 341//341
f 364//364 363//363 341//341
f 360//360 364//364 341//341
f 364//364 360//360 361//361
f 364//364 361//361 365//365
f 367//367 365//365 366//366
f 366//366 365//365 347//347
f 365//365 361//361 347//347
f 361//361 344//344 347//347
f 348//348 366//366 347//347
f 369//369 368//368 362//362
f 368//368 345//345 362//362
f 368//368 349//349 345//345
f 369//369 362//362 363//363
f 367//367 366//366 370//370
f 367//367 370//370 371//371
f 350//350 370//370 348//348
f 348//348 370//370 366//366
f 373//373 351//351 372//372
f 351//351 368//368 372//372
f 351//351 349//349 368//368
f 374//374 373//373 372//372
f 371//371 370//370 375//375
f 371//371 375//375 376//376
f 352//352 375//375 350//350
f 350//350 375//375 370//370
f 373//373 353//353 351//351
f 378//378 377//377 354//354
f 378//378 354//354 353//353
f 374//374 378//378 353//353
f 373//373 374//374 353//353
f 356//356 357//357 377//377
f 378//378 356//356 377//377
f 379//379 356//356 378//378
f 375//375 358//358 376//376
f 358//358 379//379 376//376
f 358//358 356//356 379//379
f 358//358 375//375 352//352
f 377//377 359//359 354//354
f 359//359 377//377 357//357
f 380//380 363//363 364//364
f 365//365 381//381 364//364
f 364//364 381//381 380//380
f 367//367 381//381 365//365
f 382//382 368//368 369//369
f 363//363 380//380 369//369
f 380//380 382//382 369//369
f 380//380 383//383 382//382
f 384//384 380//380 381//381
f 383//383 380//380 384//384
f 371//371 384//384 367//367
f 367//367 384//384 381//381
f 382//382 372//372 368//368
f 372//372 382//382 374//374
f 382//382 385//385 374//374
f 382//382 383//383 385//385
f 386//386 383//383 384//384
f 385//385 383//383 386//386
f 376//376 386//386 371//371
f 371//371 386//386 384//384
f 385//385 378//378 374//374
f 378//378 385//385 379//379
f 379//379 385//385 386//386
f 379//379 386//386 376//376
